<?xml version="1.0" encoding="UTF-8"?>
<!DOCTYPE svg PUBLIC "-//W3C//DTD SVG 1.1//EN" "http://www.w3.org/Graphics/SVG/1.1/DTD/svg11.dtd">
<svg xmlns="http://www.w3.org/2000/svg" version="1.1" width="475px" height="479px" style="shape-rendering:geometricPrecision; text-rendering:geometricPrecision; image-rendering:optimizeQuality; fill-rule:evenodd; clip-rule:evenodd" xmlns:xlink="http://www.w3.org/1999/xlink">
<g><path style="opacity:0.28" fill="#c3c3c3" d="M 189.5,24.5 C 179.494,24.6769 169.494,25.0102 159.5,25.5C 169.467,23.6126 179.467,23.2792 189.5,24.5 Z"/></g>
<g><path style="opacity:0.243" fill="#bdbdbd" d="M 191.5,25.5 C 194.754,25.7936 197.421,27.127 199.5,29.5C 196.515,28.6743 193.849,27.341 191.5,25.5 Z"/></g>
<g><path style="opacity:0.424" fill="#b8b8b8" d="M 145.5,26.5 C 141.433,28.0538 137.1,28.7204 132.5,28.5C 136.618,27.2911 140.951,26.6245 145.5,26.5 Z"/></g>
<g><path style="opacity:1" fill="#333333" d="M 189.5,24.5 C 190.492,24.3284 191.158,24.6618 191.5,25.5C 193.849,27.341 196.515,28.6743 199.5,29.5C 200.167,29.5 200.5,29.8333 200.5,30.5C 202.167,32.8333 204.167,34.8333 206.5,36.5C 208.822,37.8021 210.155,39.8021 210.5,42.5C 212.535,55.3849 213.535,68.3849 213.5,81.5C 211.712,82.6225 209.712,82.7891 207.5,82C 206.874,81.2496 206.374,80.4162 206,79.5C 205.5,70.5062 205.334,61.5062 205.5,52.5C 205.932,49.1226 205.265,46.1226 203.5,43.5C 202.662,43.1583 202.328,42.4916 202.5,41.5C 202.573,39.9731 201.906,38.9731 200.5,38.5C 199.5,38.1667 198.833,37.5 198.5,36.5C 197.833,33.8333 196.167,32.1667 193.5,31.5C 193.027,30.0937 192.027,29.427 190.5,29.5C 188.135,28.4055 185.635,27.7388 183,27.5C 177.196,28.3313 171.362,28.6646 165.5,28.5C 150.435,28.5703 135.769,30.5703 121.5,34.5C 119.236,35.2186 116.903,35.552 114.5,35.5C 110.575,35.4299 106.909,36.0966 103.5,37.5C 97.5216,37.4196 91.8549,38.4196 86.5,40.5C 81.6376,41.8998 76.6376,42.5665 71.5,42.5C 66.5662,42.2291 61.8996,42.8958 57.5,44.5C 55.1432,44.6633 52.8098,44.4966 50.5,44C 52.3146,43.2432 53.9812,42.4098 55.5,41.5C 55.8333,41.5 56.1667,41.5 56.5,41.5C 62.8039,41.5606 68.8039,40.5606 74.5,38.5C 77.9085,37.0966 81.5752,36.4299 85.5,36.5C 90.4526,36.8772 95.1193,36.2105 99.5,34.5C 100.919,33.5489 102.585,33.2155 104.5,33.5C 111.904,33.5471 118.904,32.2137 125.5,29.5C 127.607,28.5318 129.941,28.1984 132.5,28.5C 137.1,28.7204 141.433,28.0538 145.5,26.5C 150.13,25.7705 154.797,25.4372 159.5,25.5C 169.494,25.0102 179.494,24.6769 189.5,24.5 Z"/></g>
<g><path style="opacity:0.18" fill="#bbbbbb" d="M 165.5,28.5 C 150.94,30.2559 136.273,32.2559 121.5,34.5C 135.769,30.5703 150.435,28.5703 165.5,28.5 Z"/></g>
<g><path style="opacity:0.31" fill="#c0c0c0" d="M 190.5,29.5 C 192.027,29.427 193.027,30.0937 193.5,31.5C 191.973,31.573 190.973,30.9063 190.5,29.5 Z"/></g>
<g><path style="opacity:0.063" fill="#bbb9ba" d="M 200.5,30.5 C 203.5,31.5 205.5,33.5 206.5,36.5C 204.167,34.8333 202.167,32.8333 200.5,30.5 Z"/></g>
<g><path style="opacity:1" fill="#727272" d="M 125.5,29.5 C 118.904,32.2137 111.904,33.5471 104.5,33.5C 111.237,31.4299 118.237,30.0966 125.5,29.5 Z"/></g>
<g><path style="opacity:0.627" fill="#b1afaf" d="M 193.5,31.5 C 196.167,32.1667 197.833,33.8333 198.5,36.5C 196.5,35.1667 194.833,33.5 193.5,31.5 Z"/></g>
<g><path style="opacity:0.941" fill="#858585" d="M 99.5,34.5 C 95.1193,36.2105 90.4526,36.8772 85.5,36.5C 89.9804,35.4794 94.647,34.8127 99.5,34.5 Z"/></g>
<g><path style="opacity:0.282" fill="#b2b2b2" d="M 114.5,35.5 C 111.091,36.9034 107.425,37.5701 103.5,37.5C 106.909,36.0966 110.575,35.4299 114.5,35.5 Z"/></g>
<g><path style="opacity:0.8" fill="#979797" d="M 74.5,38.5 C 68.8039,40.5606 62.8039,41.5606 56.5,41.5C 62.2496,39.7708 68.2496,38.7708 74.5,38.5 Z"/></g>
<g><path style="opacity:0.188" fill="#b0b0b0" d="M 103.5,37.5 C 98.0886,39.2365 92.422,40.2365 86.5,40.5C 91.8549,38.4196 97.5216,37.4196 103.5,37.5 Z"/></g>
<g><path style="opacity:0.235" fill="#b6b5b5" d="M 200.5,38.5 C 201.906,38.9731 202.573,39.9731 202.5,41.5C 201.094,41.0269 200.427,40.0269 200.5,38.5 Z"/></g>
<g><path style="opacity:1" fill="#7c7c7c" d="M 55.5,41.5 C 53.9812,42.4098 52.3146,43.2432 50.5,44C 52.8098,44.4966 55.1432,44.6633 57.5,44.5C 55.0392,45.531 52.3725,46.1977 49.5,46.5C 49.1788,44.9519 48.1788,44.2852 46.5,44.5C 49.0836,42.5275 52.0836,41.5275 55.5,41.5 Z"/></g>
<g><path style="opacity:0.243" fill="#ababab" d="M 71.5,42.5 C 67.0363,43.6437 62.3696,44.3104 57.5,44.5C 61.8996,42.8958 66.5662,42.2291 71.5,42.5 Z"/></g>
<g><path style="opacity:0.584" fill="#a0a0a0" d="M 203.5,43.5 C 205.265,46.1226 205.932,49.1226 205.5,52.5C 204.525,49.6888 203.858,46.6888 203.5,43.5 Z"/></g>
<g><path style="opacity:0.255" fill="#bdbdbd" d="M 51.5,48.5 C 54.089,48.461 56.089,49.461 57.5,51.5C 55.1815,51.0075 53.1815,50.0075 51.5,48.5 Z"/></g>
<g><path style="opacity:0.944" fill="#7b7b7b" d="M 195.5,51.5 C 187.999,50.5716 180.332,50.5716 172.5,51.5C 178.11,50.0041 183.944,49.0041 190,48.5C 192.891,48.2596 195.391,49.0929 197.5,51C 196.906,51.4643 196.239,51.631 195.5,51.5 Z"/></g>
<g><path style="opacity:0.227" fill="#c4c4c4" d="M 59.5,52.5 C 62.089,52.461 64.089,53.461 65.5,55.5C 63.1815,55.0075 61.1815,54.0075 59.5,52.5 Z"/></g>
<g><path style="opacity:0.467" fill="#9e9e9e" d="M 188.5,52.5 C 181.699,53.9479 174.699,54.9479 167.5,55.5C 174.174,53.1291 181.174,52.1291 188.5,52.5 Z"/></g>
<g><path style="opacity:0.984" fill="#8a8a8a" d="M 164.5,52.5 C 148.4,55.5489 132.067,57.8822 115.5,59.5C 131.572,56.2803 147.906,53.9469 164.5,52.5 Z"/></g>
<g><path style="opacity:0.592" fill="#b7b7b7" d="M 58.5,56.5 C 61.1667,57.1667 62.8333,58.8333 63.5,61.5C 61.5,60.1667 59.8333,58.5 58.5,56.5 Z"/></g>
<g><path style="opacity:0.02" fill="#cacaca" d="M 66.5,56.5 C 68.5,56.5 69.5,57.5 69.5,59.5C 68.1667,58.8333 67.1667,57.8333 66.5,56.5 Z"/></g>
<g><path style="opacity:0.271" fill="#a7a7a7" d="M 167.5,55.5 C 160.375,57.0408 153.042,58.0408 145.5,58.5C 152.522,56.2119 159.855,55.2119 167.5,55.5 Z"/></g>
<g><path style="opacity:1" fill="#363636" d="M 195.5,51.5 C 193.393,52.4682 191.059,52.8016 188.5,52.5C 181.174,52.1291 174.174,53.1291 167.5,55.5C 159.855,55.2119 152.522,56.2119 145.5,58.5C 139.589,59.5583 133.589,60.2249 127.5,60.5C 120.264,60.7646 113.264,61.7646 106.5,63.5C 100.158,63.6662 93.8246,63.4995 87.5,63C 89.0581,62.79 90.3915,62.29 91.5,61.5C 99.4878,60.7012 107.488,60.0346 115.5,59.5C 132.067,57.8822 148.4,55.5489 164.5,52.5C 167.096,51.7347 169.763,51.4013 172.5,51.5C 180.332,50.5716 187.999,50.5716 195.5,51.5 Z"/></g>
<g><path style="opacity:0.31" fill="#b1b1b1" d="M 257.5,57.5 C 257.573,59.0269 256.906,60.0269 255.5,60.5C 255.427,58.9731 256.094,57.9731 257.5,57.5 Z"/></g>
<g><path style="opacity:0.796" fill="#8d8d8d" d="M 69.5,59.5 C 71.1667,60.5 72.5,61.8333 73.5,63.5C 71.1667,63.1667 69.8333,61.8333 69.5,59.5 Z"/></g>
<g><path style="opacity:0.302" fill="#9d9d9d" d="M 127.5,60.5 C 120.749,62.3216 113.749,63.3216 106.5,63.5C 113.264,61.7646 120.264,60.7646 127.5,60.5 Z"/></g>
<g><path style="opacity:0.576" fill="#979697" d="M 91.5,61.5 C 90.3915,62.29 89.0581,62.79 87.5,63C 93.8246,63.4995 100.158,63.6662 106.5,63.5C 100.013,64.654 93.3464,64.8206 86.5,64C 85.1667,63.3333 85.1667,62.6667 86.5,62C 88.1341,61.5065 89.8008,61.3398 91.5,61.5 Z"/></g>
<g><path style="opacity:0.494" fill="#9b9b9b" d="M 65.5,63.5 C 67.0269,63.427 68.0269,64.0937 68.5,65.5C 66.9731,65.573 65.9731,64.9063 65.5,63.5 Z"/></g>
<g><path style="opacity:0.125" fill="#bebdbd" d="M 73.5,63.5 C 75.8333,63.8333 77.1667,65.1667 77.5,67.5C 75.8333,66.5 74.5,65.1667 73.5,63.5 Z"/></g>
<g><path style="opacity:0.431" fill="#aaa8a9" d="M 264.5,59.5 C 263.29,64.251 261.29,68.5844 258.5,72.5C 259.71,67.749 261.71,63.4156 264.5,59.5 Z"/></g>
<g><path style="opacity:1" fill="#3b3a3b" d="M 45.5,44.5 C 45.8333,44.5 46.1667,44.5 46.5,44.5C 48.1788,44.2852 49.1788,44.9519 49.5,46.5C 50.1667,47.1667 50.8333,47.8333 51.5,48.5C 53.1815,50.0075 55.1815,51.0075 57.5,51.5C 58.4916,51.3284 59.1583,51.6618 59.5,52.5C 61.1815,54.0075 63.1815,55.0075 65.5,55.5C 66.1667,55.5 66.5,55.8333 66.5,56.5C 67.1667,57.8333 68.1667,58.8333 69.5,59.5C 69.8333,61.8333 71.1667,63.1667 73.5,63.5C 74.5,65.1667 75.8333,66.5 77.5,67.5C 77.8333,70.1667 78.1667,72.8333 78.5,75.5C 77.3995,77.2774 76.5662,79.2774 76,81.5C 75.6667,80.8333 75.3333,80.1667 75,79.5C 74.5001,95.8299 74.3334,112.163 74.5,128.5C 73.504,114.01 73.1707,99.3428 73.5,84.5C 73.5498,79.4482 73.0498,74.4482 72,69.5C 71.6232,68.0577 70.7899,67.0577 69.5,66.5C 68.8333,66.5 68.5,66.1667 68.5,65.5C 68.0269,64.0937 67.0269,63.427 65.5,63.5C 64.5,63.1667 63.8333,62.5 63.5,61.5C 62.8333,58.8333 61.1667,57.1667 58.5,56.5C 56.1815,56.0075 54.1815,55.0075 52.5,53.5C 52.0269,52.0937 51.0269,51.427 49.5,51.5C 49.1667,51.5 48.8333,51.5 48.5,51.5C 47.4789,51.8993 47.1455,53.2326 47.5,55.5C 45.9983,53.1371 46.3316,50.9705 48.5,49C 47.552,48.5172 46.552,48.3505 45.5,48.5C 45.5,47.1667 45.5,45.8333 45.5,44.5 Z"/></g>
<g><path style="opacity:0.255" fill="#b8b8b8" d="M 49.5,51.5 C 51.0269,51.427 52.0269,52.0937 52.5,53.5C 50.9731,53.573 49.9731,52.9063 49.5,51.5 Z"/></g>
<g><path style="opacity:0.925" fill="#8d8b8b" d="M 255.5,61.5 C 255.163,65.836 253.496,69.5026 250.5,72.5C 251.382,68.4069 253.049,64.7403 255.5,61.5 Z"/></g>
<g><path style="opacity:1" fill="#292828" d="M 264.5,59.5 C 261.71,63.4156 259.71,67.749 258.5,72.5C 258.34,74.153 257.674,75.4863 256.5,76.5C 253.71,80.4156 251.71,84.749 250.5,89.5C 250.672,90.4916 250.338,91.1583 249.5,91.5C 248.5,91.8333 247.833,92.5 247.5,93.5C 246.5,94.8333 245.5,94.8333 244.5,93.5C 244.958,89.4616 245.624,85.4616 246.5,81.5C 246.66,79.847 247.326,78.5137 248.5,77.5C 250.213,76.3646 250.88,74.698 250.5,72.5C 253.496,69.5026 255.163,65.836 255.5,61.5C 255.5,61.1667 255.5,60.8333 255.5,60.5C 256.906,60.0269 257.573,59.0269 257.5,57.5C 259.628,56.3709 261.961,56.2042 264.5,57C 265.774,57.9772 265.774,58.8106 264.5,59.5 Z"/></g>
<g><path style="opacity:1" fill="#717171" d="M 191.5,71.5 C 190.206,70.7101 189.039,69.7101 188,68.5C 186.961,69.2438 186.461,70.2438 186.5,71.5C 185.833,71.1667 185.167,70.8333 184.5,70.5C 180.936,69.5773 177.269,69.244 173.5,69.5C 177.312,68.6762 181.312,68.1762 185.5,68C 179.843,67.5006 174.176,67.3339 168.5,67.5C 175.005,65.3642 181.671,65.1976 188.5,67C 190.141,68.129 191.141,69.629 191.5,71.5 Z"/></g>
<g><path style="opacity:1" fill="#212121" d="M 191.5,71.5 C 192.35,78.7985 192.683,86.1319 192.5,93.5C 191.167,94.8333 189.833,94.8333 188.5,93.5C 188.909,86.0359 188.243,78.7026 186.5,71.5C 186.461,70.2438 186.961,69.2438 188,68.5C 189.039,69.7101 190.206,70.7101 191.5,71.5 Z"/></g>
<g><path style="opacity:0.443" fill="#9d9b9c" d="M 69.5,66.5 C 70.7899,67.0577 71.6232,68.0577 72,69.5C 73.0498,74.4482 73.5498,79.4482 73.5,84.5C 72.2662,78.588 70.9328,72.588 69.5,66.5 Z"/></g>
<g><path style="opacity:0.357" fill="#a8a6a6" d="M 77.5,67.5 C 79.0109,69.4758 79.8442,71.8091 80,74.5C 80.7794,81.53 81.6128,88.53 82.5,95.5C 81.6626,107.793 81.6626,120.126 82.5,132.5C 81.6862,130.369 81.1862,128.036 81,125.5C 80.6667,111.5 80.3333,97.5 80,83.5C 79.6049,80.7934 79.1049,78.1267 78.5,75.5C 78.1667,72.8333 77.8333,70.1667 77.5,67.5 Z"/></g>
<g><path style="opacity:0.612" fill="#aeadad" d="M 157.5,69.5 C 150.798,71.7488 143.798,73.0821 136.5,73.5C 143.234,71.4303 150.234,70.0969 157.5,69.5 Z"/></g>
<g><path style="opacity:0.255" fill="#b4b3b3" d="M 163.5,71.5 C 156.404,73.4623 149.071,74.7956 141.5,75.5C 148.556,73.3221 155.89,71.9887 163.5,71.5 Z"/></g>
<g><path style="opacity:0.171" fill="#c7c6c7" d="M 210.5,42.5 C 211.793,43.842 212.626,45.5087 213,47.5C 213.589,55.6613 214.089,63.828 214.5,72C 214.498,75.3518 214.165,78.5185 213.5,81.5C 213.535,68.3849 212.535,55.3849 210.5,42.5 Z"/></g>
<g><path style="opacity:0.882" fill="#979697" d="M 250.5,72.5 C 250.88,74.698 250.213,76.3646 248.5,77.5C 248.796,75.597 249.463,73.9303 250.5,72.5 Z"/></g>
<g><path style="opacity:0.894" fill="#4d4d4d" d="M 168.5,67.5 C 174.176,67.3339 179.843,67.5006 185.5,68C 181.312,68.1762 177.312,68.6762 173.5,69.5C 170.411,70.7846 167.078,71.4512 163.5,71.5C 155.89,71.9887 148.556,73.3221 141.5,75.5C 134.58,77.0838 127.58,78.4171 120.5,79.5C 117.813,79.6641 115.146,79.4974 112.5,79C 113.737,78.7679 114.737,78.2679 115.5,77.5C 122.347,75.4141 129.347,74.0808 136.5,73.5C 143.798,73.0821 150.798,71.7488 157.5,69.5C 160.946,68.3126 164.613,67.6459 168.5,67.5 Z"/></g>
<g><path style="opacity:0.821" fill="#9c9b9b" d="M 115.5,77.5 C 114.737,78.2679 113.737,78.7679 112.5,79C 115.146,79.4974 117.813,79.6641 120.5,79.5C 115.097,81.2051 109.43,81.8718 103.5,81.5C 104.609,80.71 105.942,80.21 107.5,80C 105.19,79.5034 102.857,79.3367 100.5,79.5C 105.306,78.4074 110.306,77.7407 115.5,77.5 Z"/></g>
<g><path style="opacity:0.725" fill="#848484" d="M 48.5,51.5 C 48.7345,120.777 48.7345,190.111 48.5,259.5C 47.5008,191.669 47.1675,123.669 47.5,55.5C 47.1455,53.2326 47.4789,51.8993 48.5,51.5 Z"/></g>
<g><path style="opacity:0.988" fill="#868686" d="M 100.5,79.5 C 102.857,79.3367 105.19,79.5034 107.5,80C 105.942,80.21 104.609,80.71 103.5,81.5C 101.709,82.3913 99.8761,83.3913 98,84.5C 97.5,106.831 97.3334,129.164 97.5,151.5C 96.8333,128.996 96.1667,106.33 95.5,83.5C 94.8326,86.6417 94.166,89.6417 93.5,92.5C 93.5,89.8333 93.5,87.1667 93.5,84.5C 94.8331,81.6472 97.1665,79.9805 100.5,79.5 Z"/></g>
<g><path style="opacity:0.533" fill="#9d9d9d" d="M 184.5,70.5 C 185.167,70.8333 185.833,71.1667 186.5,71.5C 188.243,78.7026 188.909,86.0359 188.5,93.5C 188.058,85.7809 186.724,78.1142 184.5,70.5 Z"/></g>
<g><path style="opacity:0.727" fill="#8e8e8e" d="M 191.5,71.5 C 193.346,76.7019 194.346,82.2019 194.5,88C 194.453,90.2953 193.787,92.1286 192.5,93.5C 192.683,86.1319 192.35,78.7985 191.5,71.5 Z"/></g>
<g><path style="opacity:0.437" fill="#b0b0b0" d="M 284.5,84.5 C 286.948,83.5269 289.615,83.1936 292.5,83.5C 292.737,84.791 292.404,85.791 291.5,86.5C 289.721,84.6565 287.388,83.9898 284.5,84.5 Z"/></g>
<g><path style="opacity:0.341" fill="#b4b1b3" d="M 256.5,76.5 C 255.29,81.251 253.29,85.5844 250.5,89.5C 251.71,84.749 253.71,80.4156 256.5,76.5 Z"/></g>
<g><path style="opacity:0.467" fill="#b4b3b4" d="M 279.5,88.5 C 278.833,89.8333 277.833,90.8333 276.5,91.5C 276.5,89.5 277.5,88.5 279.5,88.5 Z"/></g>
<g><path style="opacity:0.055" fill="#c4c4c4" d="M 289.5,88.5 C 289.027,89.9063 288.027,90.573 286.5,90.5C 286.973,89.0937 287.973,88.427 289.5,88.5 Z"/></g>
<g><path style="opacity:0.702" fill="#9d9c9c" d="M 246.5,81.5 C 245.624,85.4616 244.958,89.4616 244.5,93.5C 243.522,93.189 242.855,92.5223 242.5,91.5C 243.328,87.8619 244.661,84.5286 246.5,81.5 Z"/></g>
<g><path style="opacity:0.012" fill="#cacaca" d="M 249.5,91.5 C 249.5,92.8333 248.833,93.5 247.5,93.5C 247.833,92.5 248.5,91.8333 249.5,91.5 Z"/></g>
<g><path style="opacity:0.269" fill="#c2c0c1" d="M 93.5,84.5 C 93.5,87.1667 93.5,89.8333 93.5,92.5C 93.3761,112.171 93.0427,131.838 92.5,151.5C 91.8343,147.514 91.501,143.347 91.5,139C 91.9702,120.665 92.6368,102.498 93.5,84.5 Z"/></g>
<g><path style="opacity:0.694" fill="#8fc5cc" d="M 216.5,100.5 C 208.181,99.3696 199.847,99.3696 191.5,100.5C 197.307,99.1851 203.307,98.1851 209.5,97.5C 212.36,97.555 214.693,98.555 216.5,100.5 Z"/></g>
<g><path style="opacity:0.635" fill="#a09fa0" d="M 271.5,96.5 C 270.581,99.0892 268.914,101.089 266.5,102.5C 267.419,99.9108 269.086,97.9108 271.5,96.5 Z"/></g>
<g><path style="opacity:0.027" fill="#d4c4c5" d="M 279.5,97.5 C 279.5,99.5 278.5,100.5 276.5,100.5C 277.167,99.1667 278.167,98.1667 279.5,97.5 Z"/></g>
<g><path style="opacity:0.914" fill="#8ac3cd" d="M 188.5,100.5 C 185.155,102.217 181.489,102.884 177.5,102.5C 180.946,101.313 184.613,100.646 188.5,100.5 Z"/></g>
<g><path style="opacity:1" fill="#087790" d="M 216.5,100.5 C 218.136,101.749 219.303,103.416 220,105.5C 223.208,112.625 225.708,119.958 227.5,127.5C 227.259,129.898 227.926,131.898 229.5,133.5C 229.345,136.716 230.345,139.383 232.5,141.5C 233.363,143.421 234.029,145.421 234.5,147.5C 234.861,151.915 236.194,155.915 238.5,159.5C 240.204,162.939 241.538,166.605 242.5,170.5C 242.723,174.162 243.723,177.495 245.5,180.5C 247.04,182.838 247.706,185.505 247.5,188.5C 247.068,191.877 247.735,194.877 249.5,197.5C 249.5,198.167 249.5,198.833 249.5,199.5C 248.995,205.823 250.495,211.489 254,216.5C 254.212,219.758 254.712,222.924 255.5,226C 253.627,227.704 251.96,229.537 250.5,231.5C 250.167,231.5 249.833,231.5 249.5,231.5C 247.167,231.5 244.833,231.5 242.5,231.5C 242.189,230.522 241.522,229.855 240.5,229.5C 239.452,230.383 238.285,231.05 237,231.5C 235.604,230.606 234.104,229.939 232.5,229.5C 229.816,230.196 227.316,230.196 225,229.5C 224.544,230.744 225.044,231.577 226.5,232C 223.027,231.865 220.194,233.031 218,235.5C 216.72,235.387 215.887,234.72 215.5,233.5C 216.899,231.395 218.566,229.562 220.5,228C 218.225,226.13 215.725,224.63 213,223.5C 209.283,224.869 205.45,225.536 201.5,225.5C 201.67,226.822 201.337,227.989 200.5,229C 202.81,229.497 205.143,229.663 207.5,229.5C 207.271,231.433 206.438,233.1 205,234.5C 200.867,233.709 196.7,232.876 192.5,232C 191.663,230.989 191.33,229.822 191.5,228.5C 185.763,229.857 180.096,231.69 174.5,234C 166.541,235.164 158.541,235.664 150.5,235.5C 179.337,228.451 208.337,221.784 237.5,215.5C 237.5,213.833 237.5,212.167 237.5,210.5C 217.803,215.46 198.136,220.293 178.5,225C 165.067,227.182 151.734,229.682 138.5,232.5C 138.5,233.833 138.5,235.167 138.5,236.5C 139.5,236.5 140.5,236.5 141.5,236.5C 143.498,237.148 145.498,237.981 147.5,239C 146.234,239.309 145.067,239.809 144,240.5C 142.27,245.916 140.103,250.916 137.5,255.5C 135.833,251.5 134.167,247.5 132.5,243.5C 131.262,241.786 130.595,239.786 130.5,237.5C 129.103,228.588 127.103,219.921 124.5,211.5C 124.416,207.163 123.416,203.163 121.5,199.5C 121.706,196.505 121.04,193.838 119.5,191.5C 117.882,187.425 116.882,183.092 116.5,178.5C 116.59,175.848 115.924,173.515 114.5,171.5C 113.366,168.63 112.7,165.63 112.5,162.5C 112.706,159.505 112.04,156.838 110.5,154.5C 110.083,148.83 108.749,143.497 106.5,138.5C 107.193,134.206 106.193,130.539 103.5,127.5C 103.212,124.134 103.046,120.8 103,117.5C 105.294,116.578 107.461,115.578 109.5,114.5C 114.911,114.875 119.911,113.875 124.5,111.5C 128.921,109.898 133.588,108.898 138.5,108.5C 148.411,107.597 158.077,105.931 167.5,103.5C 170.625,102.521 173.958,102.187 177.5,102.5C 181.489,102.884 185.155,102.217 188.5,100.5C 189.5,100.5 190.5,100.5 191.5,100.5C 199.847,99.3696 208.181,99.3696 216.5,100.5 Z"/></g>
<g><path style="opacity:1" fill="#262425" d="M 284.5,84.5 C 287.388,83.9898 289.721,84.6565 291.5,86.5C 291.167,87.5 290.5,88.1667 289.5,88.5C 287.973,88.427 286.973,89.0937 286.5,90.5C 284.5,93.1667 282.167,95.5 279.5,97.5C 278.167,98.1667 277.167,99.1667 276.5,100.5C 275.094,100.973 274.427,101.973 274.5,103.5C 274.5,104.167 274.167,104.5 273.5,104.5C 271.236,105.219 268.903,105.552 266.5,105.5C 266.007,107.806 265.674,110.139 265.5,112.5C 262.573,113.757 260.239,115.757 258.5,118.5C 258.158,119.338 257.492,119.672 256.5,119.5C 255.5,119.5 254.5,119.5 253.5,119.5C 254.382,116.615 255.716,113.948 257.5,111.5C 258.239,111.631 258.906,111.464 259.5,111C 261.054,108.713 262.721,106.546 264.5,104.5C 264.833,103.5 265.5,102.833 266.5,102.5C 268.914,101.089 270.581,99.0892 271.5,96.5C 272.833,94.5 274.5,92.8333 276.5,91.5C 277.833,90.8333 278.833,89.8333 279.5,88.5C 280.579,86.457 282.246,85.1237 284.5,84.5 Z"/></g>
<g><path style="opacity:0.02" fill="#cbcbcb" d="M 276.5,100.5 C 276.573,102.027 275.906,103.027 274.5,103.5C 274.427,101.973 275.094,100.973 276.5,100.5 Z"/></g>
<g><path style="opacity:0.806" fill="#969696" d="M 317.5,101.5 C 319.628,100.371 321.961,100.204 324.5,101C 325.451,101.718 325.617,102.551 325,103.5C 322.011,105.666 318.845,105.999 315.5,104.5C 315.285,102.821 315.952,101.821 317.5,101.5 Z"/></g>
<g><path style="opacity:1" fill="#1a1a1a" d="M 317.5,101.5 C 319.288,101.215 320.955,101.548 322.5,102.5C 320.579,103.641 318.579,103.808 316.5,103C 317.056,102.617 317.389,102.117 317.5,101.5 Z"/></g>
<g><path style="opacity:1" fill="#6eacbb" d="M 167.5,103.5 C 158.077,105.931 148.411,107.597 138.5,108.5C 147.807,105.448 157.473,103.781 167.5,103.5 Z"/></g>
<g><path style="opacity:1" fill="#5d5b5b" d="M 273.5,104.5 C 271.167,107.5 268.5,110.167 265.5,112.5C 265.674,110.139 266.007,107.806 266.5,105.5C 268.903,105.552 271.236,105.219 273.5,104.5 Z"/></g>
<g><path style="opacity:0.902" fill="#858384" d="M 264.5,104.5 C 262.721,106.546 261.054,108.713 259.5,111C 258.906,111.464 258.239,111.631 257.5,111.5C 258.836,109.99 260.003,108.323 261,106.5C 261.816,105.177 262.983,104.511 264.5,104.5 Z"/></g>
<g><path style="opacity:0.851" fill="#7e7e7e" d="M 307.5,112.5 C 305.365,110.631 302.698,109.964 299.5,110.5C 302.81,107.969 306.143,108.136 309.5,111C 308.956,111.717 308.289,112.217 307.5,112.5 Z"/></g>
<g><path style="opacity:0.522" fill="#b8b7b7" d="M 297.5,111.5 C 296.486,112.674 295.153,113.34 293.5,113.5C 294.287,111.896 295.62,111.229 297.5,111.5 Z"/></g>
<g><path style="opacity:1" fill="#73afbc" d="M 124.5,111.5 C 119.911,113.875 114.911,114.875 109.5,114.5C 114.23,112.763 119.23,111.763 124.5,111.5 Z"/></g>
<g><path style="opacity:0.082" fill="#bab9ba" d="M 265.5,112.5 C 263.761,115.243 261.427,117.243 258.5,118.5C 260.239,115.757 262.573,113.757 265.5,112.5 Z"/></g>
<g><path style="opacity:0.698" fill="#9c9b9c" d="M 257.5,111.5 C 255.716,113.948 254.382,116.615 253.5,119.5C 254.5,119.5 255.5,119.5 256.5,119.5C 254.58,120.94 252.913,120.607 251.5,118.5C 252.804,115.533 254.804,113.199 257.5,111.5 Z"/></g>
<g><path style="opacity:0.396" fill="#afaeaf" d="M 307.5,112.5 C 304.485,114.674 301.151,116.341 297.5,117.5C 300.247,114.793 303.58,113.127 307.5,112.5 Z"/></g>
<g><path style="opacity:0.675" fill="#918f90" d="M 293.5,113.5 C 292.514,115.408 290.848,116.408 288.5,116.5C 289.659,114.75 291.326,113.75 293.5,113.5 Z"/></g>
<g><path style="opacity:1" fill="#242223" d="M 299.5,110.5 C 302.698,109.964 305.365,110.631 307.5,112.5C 303.58,113.127 300.247,114.793 297.5,117.5C 296.101,118.89 294.434,119.89 292.5,120.5C 291.417,120.539 290.417,120.873 289.5,121.5C 288.808,120.975 288.308,120.308 288,119.5C 287.648,121.247 287.148,122.914 286.5,124.5C 285.85,124.196 285.183,123.863 284.5,123.5C 282.672,124.795 280.672,125.795 278.5,126.5C 277.754,127.736 277.421,129.07 277.5,130.5C 276.5,130.833 275.833,131.5 275.5,132.5C 273.853,134.326 271.853,135.66 269.5,136.5C 268.414,136.38 267.747,135.713 267.5,134.5C 268.092,132.577 269.092,130.911 270.5,129.5C 272.027,129.573 273.027,128.906 273.5,127.5C 275.749,126.92 277.415,125.587 278.5,123.5C 281.37,122.567 283.704,120.9 285.5,118.5C 287.027,118.573 288.027,117.906 288.5,116.5C 290.848,116.408 292.514,115.408 293.5,113.5C 295.153,113.34 296.486,112.674 297.5,111.5C 297.842,110.662 298.508,110.328 299.5,110.5 Z"/></g>
<g><path style="opacity:0.698" fill="#99d1d7" d="M 109.5,114.5 C 107.461,115.578 105.294,116.578 103,117.5C 103.046,120.8 103.212,124.134 103.5,127.5C 102.635,124.582 101.635,121.582 100.5,118.5C 102.743,115.635 105.743,114.302 109.5,114.5 Z"/></g>
<g><path style="opacity:0.667" fill="#9e9e9e" d="M 288.5,116.5 C 288.027,117.906 287.027,118.573 285.5,118.5C 285.973,117.094 286.973,116.427 288.5,116.5 Z"/></g>
<g><path style="opacity:0.788" fill="#7b787a" d="M 45.5,44.5 C 45.5,45.8333 45.5,47.1667 45.5,48.5C 44.5,48.5 43.5,48.5 42.5,48.5C 42.8317,84.0039 42.4984,119.337 41.5,154.5C 40.0409,118.824 40.2075,83.1576 42,47.5C 43.3588,46.635 44.5255,45.635 45.5,44.5 Z"/></g>
<g><path style="opacity:1" fill="#747374" d="M 292.5,120.5 C 290.853,122.326 288.853,123.66 286.5,124.5C 287.148,122.914 287.648,121.247 288,119.5C 288.308,120.308 288.808,120.975 289.5,121.5C 290.417,120.873 291.417,120.539 292.5,120.5 Z"/></g>
<g><path style="opacity:0.49" fill="#b0aeb0" d="M 285.5,118.5 C 283.704,120.9 281.37,122.567 278.5,123.5C 280.296,121.1 282.63,119.433 285.5,118.5 Z"/></g>
<g><path style="opacity:1" fill="#484647" d="M 286.5,124.5 C 284.122,126.878 281.455,128.878 278.5,130.5C 278.167,130.5 277.833,130.5 277.5,130.5C 277.421,129.07 277.754,127.736 278.5,126.5C 280.672,125.795 282.672,124.795 284.5,123.5C 285.183,123.863 285.85,124.196 286.5,124.5 Z"/></g>
<g><path style="opacity:0.843" fill="#8f8d8e" d="M 278.5,123.5 C 277.415,125.587 275.749,126.92 273.5,127.5C 274.585,125.413 276.251,124.08 278.5,123.5 Z"/></g>
<g><path style="opacity:1" fill="#092832" d="M 199.5,131.5 C 196.64,131.072 193.974,130.072 191.5,128.5C 189.279,128.439 188.946,129.105 190.5,130.5C 178.09,126.773 166.757,128.773 156.5,136.5C 156.5,135.5 156.5,134.5 156.5,133.5C 154.315,133.704 152.315,134.37 150.5,135.5C 151.716,133.549 153.382,132.049 155.5,131C 168.191,125.493 181.191,124.493 194.5,128C 196.584,128.697 198.251,129.864 199.5,131.5 Z"/></g>
<g><path style="opacity:0.655" fill="#a09d9e" d="M 273.5,127.5 C 273.027,128.906 272.027,129.573 270.5,129.5C 270.973,128.094 271.973,127.427 273.5,127.5 Z"/></g>
<g><path style="opacity:1" fill="#252324" d="M 78.5,75.5 C 79.1049,78.1267 79.6049,80.7934 80,83.5C 80.3333,97.5 80.6667,111.5 81,125.5C 81.1862,128.036 81.6862,130.369 82.5,132.5C 83.6,180.191 83.7667,227.858 83,275.5C 81.3845,276.801 79.8845,276.801 78.5,275.5C 76.8983,261.268 76.2316,246.935 76.5,232.5C 76.6666,200.165 76.5,167.832 76,135.5C 75.8019,133.618 75.3019,131.952 74.5,130.5C 74.5,129.833 74.5,129.167 74.5,128.5C 74.3334,112.163 74.5001,95.8299 75,79.5C 75.3333,80.1667 75.6667,80.8333 76,81.5C 76.5662,79.2774 77.3995,77.2774 78.5,75.5 Z"/></g>
<g><path style="opacity:1" fill="#77b8c3" d="M 103.5,127.5 C 106.193,130.539 107.193,134.206 106.5,138.5C 104.926,135.093 103.926,131.427 103.5,127.5 Z"/></g>
<g><path style="opacity:0.075" fill="#c2c1c2" d="M 277.5,130.5 C 277.833,130.5 278.167,130.5 278.5,130.5C 278.027,131.906 277.027,132.573 275.5,132.5C 275.833,131.5 276.5,130.833 277.5,130.5 Z"/></g>
<g><path style="opacity:0.58" fill="#8ac9d0" d="M 227.5,127.5 C 229.074,129.102 229.741,131.102 229.5,133.5C 227.926,131.898 227.259,129.898 227.5,127.5 Z"/></g>
<g><path style="opacity:1" fill="#646364" d="M 270.5,129.5 C 269.092,130.911 268.092,132.577 267.5,134.5C 267.747,135.713 268.414,136.38 269.5,136.5C 269.027,137.906 268.027,138.573 266.5,138.5C 266.705,135.014 265.371,134.014 262.5,135.5C 264.878,133.122 267.545,131.122 270.5,129.5 Z"/></g>
<g><path style="opacity:1" fill="#1e1d1e" d="M 266.5,138.5 C 264.181,138.992 262.181,139.992 260.5,141.5C 258.585,141.784 256.919,141.451 255.5,140.5C 257.404,140.262 258.738,139.262 259.5,137.5C 261.027,137.573 262.027,136.906 262.5,135.5C 265.371,134.014 266.705,135.014 266.5,138.5 Z"/></g>
<g><path style="opacity:0.871" fill="#91c7d3" d="M 229.5,133.5 C 231.097,135.848 232.097,138.514 232.5,141.5C 230.345,139.383 229.345,136.716 229.5,133.5 Z"/></g>
<g><path style="opacity:0.624" fill="#a5a5a5" d="M 262.5,135.5 C 262.027,136.906 261.027,137.573 259.5,137.5C 259.973,136.094 260.973,135.427 262.5,135.5 Z"/></g>
<g><path style="opacity:0.62" fill="#9c9b9b" d="M 259.5,137.5 C 258.738,139.262 257.404,140.262 255.5,140.5C 256.262,138.738 257.596,137.738 259.5,137.5 Z"/></g>
<g><path style="opacity:0.325" fill="#aaa9aa" d="M 266.5,138.5 C 265.089,140.539 263.089,141.539 260.5,141.5C 262.181,139.992 264.181,138.992 266.5,138.5 Z"/></g>
<g><path style="opacity:0.024" fill="#aedee8" d="M 106.5,138.5 C 108.749,143.497 110.083,148.83 110.5,154.5C 108.565,149.427 107.232,144.094 106.5,138.5 Z"/></g>
<g><path style="opacity:0.596" fill="#a1a0a0" d="M 255.5,140.5 C 256.919,141.451 258.585,141.784 260.5,141.5C 258.636,142.793 256.636,142.793 254.5,141.5C 254.624,140.893 254.957,140.56 255.5,140.5 Z"/></g>
<g><path style="opacity:0.591" fill="#817e80" d="M 74.5,130.5 C 75.3019,131.952 75.8019,133.618 76,135.5C 76.5,167.832 76.6666,200.165 76.5,232.5C 76.1667,232.5 75.8333,232.5 75.5,232.5C 75.784,198.484 75.4507,164.484 74.5,130.5 Z"/></g>
<g><path style="opacity:1" fill="#161f22" d="M 199.5,131.5 C 211.22,143.987 215.054,158.653 211,175.5C 210.195,179.776 208.362,183.443 205.5,186.5C 204.5,186.5 203.5,186.5 202.5,186.5C 202.338,188.824 201.172,190.491 199,191.5C 199.427,183.183 197.26,175.683 192.5,169C 193.5,168.333 194.5,168.333 195.5,169C 198.445,171.431 200.778,174.264 202.5,177.5C 204.092,178.602 204.925,177.935 205,175.5C 205.999,170.187 206.332,164.854 206,159.5C 203.528,148.246 198.361,138.579 190.5,130.5C 188.946,129.105 189.279,128.439 191.5,128.5C 193.974,130.072 196.64,131.072 199.5,131.5 Z"/></g>
<g><path style="opacity:0.694" fill="#95cbd4" d="M 234.5,147.5 C 236.405,151.216 237.739,155.216 238.5,159.5C 236.194,155.915 234.861,151.915 234.5,147.5 Z"/></g>
<g><path style="opacity:0.353" fill="#a6d8e5" d="M 110.5,154.5 C 112.04,156.838 112.706,159.505 112.5,162.5C 111.232,160.095 110.565,157.428 110.5,154.5 Z"/></g>
<g><path style="opacity:1" fill="#08758d" d="M 190.5,130.5 C 198.361,138.579 203.528,148.246 206,159.5C 206.332,164.854 205.999,170.187 205,175.5C 204.925,177.935 204.092,178.602 202.5,177.5C 202.398,172.556 200.065,169.056 195.5,167C 188.247,165.443 180.914,165.11 173.5,166C 165.425,167.913 160.091,172.746 157.5,180.5C 155.489,183.869 154.489,187.536 154.5,191.5C 153.448,191.649 152.448,191.483 151.5,191C 150.672,189.008 149.339,187.508 147.5,186.5C 142.821,178.137 141.321,169.137 143,159.5C 143.93,154.71 145.264,150.044 147,145.5C 149.379,141.62 152.546,138.62 156.5,136.5C 166.757,128.773 178.09,126.773 190.5,130.5 Z"/></g>
<g><path style="opacity:1" fill="#10252b" d="M 162.5,139.5 C 170.542,137.948 177.375,139.948 183,145.5C 184.316,151.869 181.816,156.036 175.5,158C 169.285,159.54 163.785,158.373 159,154.5C 158.333,150.833 158.333,147.167 159,143.5C 160.102,142.051 161.269,140.718 162.5,139.5 Z"/></g>
<g><path style="opacity:1" fill="#0f7286" d="M 167.5,142.5 C 173.312,143.475 176.479,146.809 177,152.5C 173.269,156.05 169.269,156.383 165,153.5C 163.946,149.345 164.78,145.678 167.5,142.5 Z"/></g>
<g><path style="opacity:1" fill="#11242a" d="M 156.5,136.5 C 152.546,138.62 149.379,141.62 147,145.5C 145.264,150.044 143.93,154.71 143,159.5C 141.321,169.137 142.821,178.137 147.5,186.5C 144.994,185.185 143.161,183.185 142,180.5C 140.563,174.492 140.396,168.492 141.5,162.5C 140.863,160.697 139.697,159.364 138,158.5C 136.641,163.775 136.308,169.109 137,174.5C 138.8,180.768 141.634,186.434 145.5,191.5C 140.338,187.459 136.838,182.126 135,175.5C 133.349,164.141 135.349,153.474 141,143.5C 143.766,140.223 146.933,137.557 150.5,135.5C 152.315,134.37 154.315,133.704 156.5,133.5C 156.5,134.5 156.5,135.5 156.5,136.5 Z"/></g>
<g><path style="opacity:1" fill="#262425" d="M 45.5,48.5 C 46.552,48.3505 47.552,48.5172 48.5,49C 46.3316,50.9705 45.9983,53.1371 47.5,55.5C 47.1675,123.669 47.5008,191.669 48.5,259.5C 49.3627,261.421 50.0293,263.421 50.5,265.5C 50.5,267.5 51.5,268.5 53.5,268.5C 54.0347,270.446 55.368,271.446 57.5,271.5C 59.3392,274.135 62.0058,275.468 65.5,275.5C 67.6976,275.875 69.6976,276.542 71.5,277.5C 72.7065,278.88 72.3731,280.047 70.5,281C 68.5273,281.495 66.5273,281.662 64.5,281.5C 62.3155,279.415 59.6489,278.415 56.5,278.5C 54.847,278.34 53.5137,277.674 52.5,276.5C 51.7377,274.738 50.4044,273.738 48.5,273.5C 45.6616,270.479 43.3283,267.146 41.5,263.5C 40.1667,227.167 40.1667,190.833 41.5,154.5C 42.4984,119.337 42.8317,84.0039 42.5,48.5C 43.5,48.5 44.5,48.5 45.5,48.5 Z"/></g>
<g><path style="opacity:1" fill="#07758d" d="M 162.5,183.5 C 162.433,182.041 162.766,180.708 163.5,179.5C 164.892,177.727 166.059,175.727 167,173.5C 172.711,167.883 179.545,166.05 187.5,168C 191.302,170.087 193.802,173.254 195,177.5C 196.745,181.996 197.579,186.662 197.5,191.5C 194.111,193.375 190.777,195.542 187.5,198C 180.309,200.194 172.975,200.861 165.5,200C 163.714,199.215 162.214,198.049 161,196.5C 160.422,192.045 160.922,187.712 162.5,183.5 Z"/></g>
<g><path style="opacity:0.29" fill="#b2dde7" d="M 114.5,171.5 C 115.924,173.515 116.59,175.848 116.5,178.5C 115.076,176.485 114.41,174.152 114.5,171.5 Z"/></g>
<g><path style="opacity:0.686" fill="#9dcfd3" d="M 242.5,170.5 C 244.277,173.505 245.277,176.838 245.5,180.5C 243.723,177.495 242.723,174.162 242.5,170.5 Z"/></g>
<g><path style="opacity:1" fill="#191d1e" d="M 147.5,186.5 C 149.339,187.508 150.672,189.008 151.5,191C 152.448,191.483 153.448,191.649 154.5,191.5C 154.489,187.536 155.489,183.869 157.5,180.5C 159.567,179.737 161.234,178.404 162.5,176.5C 163.386,177.325 163.719,178.325 163.5,179.5C 162.766,180.708 162.433,182.041 162.5,183.5C 161.034,184.347 160.2,185.68 160,187.5C 159.58,191.191 159.08,194.858 158.5,198.5C 154.804,197.108 151.137,195.775 147.5,194.5C 146.833,193.5 146.167,192.5 145.5,191.5C 141.634,186.434 138.8,180.768 137,174.5C 136.308,169.109 136.641,163.775 138,158.5C 139.697,159.364 140.863,160.697 141.5,162.5C 140.396,168.492 140.563,174.492 142,180.5C 143.161,183.185 144.994,185.185 147.5,186.5 Z"/></g>
<g><path style="opacity:1" fill="#0c262f" d="M 202.5,177.5 C 200.778,174.264 198.445,171.431 195.5,169C 194.5,168.333 193.5,168.333 192.5,169C 197.26,175.683 199.427,183.183 199,191.5C 201.172,190.491 202.338,188.824 202.5,186.5C 203.5,186.5 204.5,186.5 205.5,186.5C 198.346,196.915 188.346,202.415 175.5,203C 164.58,205.022 155.246,202.189 147.5,194.5C 151.137,195.775 154.804,197.108 158.5,198.5C 159.08,194.858 159.58,191.191 160,187.5C 160.2,185.68 161.034,184.347 162.5,183.5C 160.922,187.712 160.422,192.045 161,196.5C 162.214,198.049 163.714,199.215 165.5,200C 172.975,200.861 180.309,200.194 187.5,198C 190.777,195.542 194.111,193.375 197.5,191.5C 197.579,186.662 196.745,181.996 195,177.5C 193.802,173.254 191.302,170.087 187.5,168C 179.545,166.05 172.711,167.883 167,173.5C 166.059,175.727 164.892,177.727 163.5,179.5C 163.719,178.325 163.386,177.325 162.5,176.5C 161.234,178.404 159.567,179.737 157.5,180.5C 160.091,172.746 165.425,167.913 173.5,166C 180.914,165.11 188.247,165.443 195.5,167C 200.065,169.056 202.398,172.556 202.5,177.5 Z"/></g>
<g><path style="opacity:0.4" fill="#9cd3d8" d="M 119.5,191.5 C 121.04,193.838 121.706,196.505 121.5,199.5C 120.232,197.095 119.565,194.428 119.5,191.5 Z"/></g>
<g><path style="opacity:1" fill="#c99b7c" d="M 252.5,192.5 C 255.727,192.676 258.727,193.343 261.5,194.5C 264.833,195.5 268.167,196.5 271.5,197.5C 265.861,197.72 260.361,197.053 255,195.5C 253.5,195.833 252,196.167 250.5,196.5C 251.309,198.071 251.643,199.738 251.5,201.5C 250.833,200.833 250.167,200.167 249.5,199.5C 249.5,198.833 249.5,198.167 249.5,197.5C 249.5,195.833 249.5,194.167 249.5,192.5C 250.5,192.5 251.5,192.5 252.5,192.5 Z"/></g>
<g><path style="opacity:1" fill="#afafa2" d="M 247.5,188.5 C 248.626,190.536 250.293,191.87 252.5,192.5C 251.5,192.5 250.5,192.5 249.5,192.5C 249.5,194.167 249.5,195.833 249.5,197.5C 247.735,194.877 247.068,191.877 247.5,188.5 Z"/></g>
<g><path style="opacity:1" fill="#dcb69a" d="M 261.5,194.5 C 273.532,195.67 285.532,197.17 297.5,199C 301.245,199.302 304.578,200.469 307.5,202.5C 295.49,200.833 283.49,199.166 271.5,197.5C 268.167,196.5 264.833,195.5 261.5,194.5 Z"/></g>
<g><path style="opacity:0.043" fill="#a8d7e1" d="M 121.5,199.5 C 123.416,203.163 124.416,207.163 124.5,211.5C 122.898,207.761 121.898,203.761 121.5,199.5 Z"/></g>
<g><path style="opacity:0.525" fill="#edd1bc" d="M 307.5,202.5 C 312.441,204.442 316.108,207.775 318.5,212.5C 314.782,209.11 311.115,205.777 307.5,202.5 Z"/></g>
<g><path style="opacity:1" fill="#2c2a2b" d="M 97.5,151.5 C 97.5,152.167 97.5,152.833 97.5,153.5C 98.1549,185.557 97.4883,217.39 95.5,249C 97.5,250.333 99.5,251.667 101.5,253C 100.099,253.41 98.766,253.91 97.5,254.5C 96.5,253.833 95.5,253.167 94.5,252.5C 92.8117,238.902 92.1451,225.235 92.5,211.5C 92.5,191.5 92.5,171.5 92.5,151.5C 93.0427,131.838 93.3761,112.171 93.5,92.5C 94.166,89.6417 94.8326,86.6417 95.5,83.5C 96.1667,106.33 96.8333,128.996 97.5,151.5 Z"/></g>
<g><path style="opacity:0.204" fill="#afdde6" d="M 124.5,211.5 C 127.103,219.921 129.103,228.588 130.5,237.5C 127.583,229.155 125.583,220.489 124.5,211.5 Z"/></g>
<g><path style="opacity:1" fill="#40777d" d="M 249.5,199.5 C 250.167,200.167 250.833,200.833 251.5,201.5C 253.63,210.555 255.963,219.555 258.5,228.5C 258.5,229.167 258.167,229.5 257.5,229.5C 254.892,229.4 252.558,230.067 250.5,231.5C 251.96,229.537 253.627,227.704 255.5,226C 254.712,222.924 254.212,219.758 254,216.5C 250.495,211.489 248.995,205.823 249.5,199.5 Z"/></g>
<g><path style="opacity:1" fill="#102228" d="M 150.5,235.5 C 147.482,235.704 144.482,236.037 141.5,236.5C 140.5,236.5 139.5,236.5 138.5,236.5C 138.5,235.167 138.5,233.833 138.5,232.5C 151.734,229.682 165.067,227.182 178.5,225C 198.136,220.293 217.803,215.46 237.5,210.5C 237.5,212.167 237.5,213.833 237.5,215.5C 208.337,221.784 179.337,228.451 150.5,235.5 Z"/></g>
<g><path style="opacity:1" fill="#2a1b14" d="M 277.5,215.5 C 278.137,219.578 279.47,223.411 281.5,227C 287.52,228.538 293.52,230.205 299.5,232C 301.641,233.308 303.641,234.808 305.5,236.5C 305.833,236.167 306.167,235.833 306.5,235.5C 303.431,227.392 300.431,219.392 297.5,211.5C 297.5,209.833 297.5,208.167 297.5,206.5C 298.822,206.33 299.989,206.663 301,207.5C 302.593,211.731 303.76,216.065 304.5,220.5C 306.045,221.452 307.712,221.785 309.5,221.5C 309.536,225.979 310.369,230.312 312,234.5C 314.257,238.683 316.257,243.016 318,247.5C 320.222,249.385 322.056,251.551 323.5,254C 323.266,255.732 322.266,256.566 320.5,256.5C 318.577,255.908 316.911,254.908 315.5,253.5C 308.228,245.397 299.895,238.564 290.5,233C 288.833,232.333 287.167,232.333 285.5,233C 280.922,237.199 276.089,241.033 271,244.5C 269.623,243.964 269.623,242.964 271,241.5C 274.201,237.964 277.701,234.797 281.5,232C 279.305,230.627 276.971,230.294 274.5,231C 270.656,233.422 266.99,236.089 263.5,239C 261.975,240.009 260.308,240.509 258.5,240.5C 258.351,239.448 258.517,238.448 259,237.5C 261.409,235.38 263.909,233.38 266.5,231.5C 263.358,230.833 260.358,230.166 257.5,229.5C 258.167,229.5 258.5,229.167 258.5,228.5C 263.772,227.6 269.105,227.267 274.5,227.5C 273.84,223.687 272.674,220.021 271,216.5C 270.502,213.183 270.335,209.85 270.5,206.5C 272.167,206.5 273.833,206.5 275.5,206.5C 275.068,209.877 275.735,212.877 277.5,215.5 Z"/></g>
<g><path style="opacity:1" fill="#067790" d="M 242.5,231.5 C 241.432,232.434 240.099,232.768 238.5,232.5C 238.5,233.5 238.5,234.5 238.5,235.5C 233.489,235.334 228.489,235.501 223.5,236C 222.29,237.039 221.29,238.206 220.5,239.5C 219.883,239.611 219.383,239.944 219,240.5C 218.247,245.375 218.414,250.208 219.5,255C 220.031,256.718 220.698,256.885 221.5,255.5C 222.492,255.328 223.158,255.662 223.5,256.5C 227.425,260.961 232.425,262.628 238.5,261.5C 238.389,262.117 238.056,262.617 237.5,263C 243.846,263.432 249.846,264.932 255.5,267.5C 259.851,266.131 264.185,264.797 268.5,263.5C 268.5,264.167 268.833,264.5 269.5,264.5C 269.232,266.099 269.566,267.432 270.5,268.5C 271.167,270.833 271.833,273.167 272.5,275.5C 270.578,276.757 268.578,277.923 266.5,279C 259.838,279.621 253.504,281.121 247.5,283.5C 242.393,283.044 237.726,284.044 233.5,286.5C 229.525,286.486 226.192,287.819 223.5,290.5C 218.951,290.624 214.618,291.291 210.5,292.5C 204.075,292.13 197.742,292.63 191.5,294C 192.056,294.383 192.389,294.883 192.5,295.5C 190.007,296.774 187.341,297.44 184.5,297.5C 175.317,298.636 166.151,299.969 157,301.5C 155.5,301.333 154,301.167 152.5,301C 151.616,299.28 150.283,298.114 148.5,297.5C 148.75,292.42 148.25,287.42 147,282.5C 144.626,278.821 142.459,274.488 140.5,269.5C 138.723,266.495 137.723,263.162 137.5,259.5C 137.5,258.167 137.5,256.833 137.5,255.5C 140.103,250.916 142.27,245.916 144,240.5C 145.067,239.809 146.234,239.309 147.5,239C 145.498,237.981 143.498,237.148 141.5,236.5C 144.482,236.037 147.482,235.704 150.5,235.5C 158.541,235.664 166.541,235.164 174.5,234C 180.096,231.69 185.763,229.857 191.5,228.5C 191.33,229.822 191.663,230.989 192.5,232C 196.7,232.876 200.867,233.709 205,234.5C 206.438,233.1 207.271,231.433 207.5,229.5C 205.143,229.663 202.81,229.497 200.5,229C 201.337,227.989 201.67,226.822 201.5,225.5C 205.45,225.536 209.283,224.869 213,223.5C 215.725,224.63 218.225,226.13 220.5,228C 218.566,229.562 216.899,231.395 215.5,233.5C 215.887,234.72 216.72,235.387 218,235.5C 220.194,233.031 223.027,231.865 226.5,232C 225.044,231.577 224.544,230.744 225,229.5C 227.316,230.196 229.816,230.196 232.5,229.5C 234.104,229.939 235.604,230.606 237,231.5C 238.285,231.05 239.452,230.383 240.5,229.5C 241.522,229.855 242.189,230.522 242.5,231.5 Z"/></g>
<g><path style="opacity:1" fill="#ac8063" d="M 297.5,211.5 C 300.431,219.392 303.431,227.392 306.5,235.5C 306.167,235.833 305.833,236.167 305.5,236.5C 303.641,234.808 301.641,233.308 299.5,232C 293.52,230.205 287.52,228.538 281.5,227C 279.47,223.411 278.137,219.578 277.5,215.5C 279.242,218.823 280.909,222.323 282.5,226C 290.127,225.487 296.793,227.654 302.5,232.5C 302.833,232 303.167,231.5 303.5,231C 299.877,225.01 297.877,218.51 297.5,211.5 Z"/></g>
<g><path style="opacity:1" fill="#42767b" d="M 242.5,231.5 C 244.833,231.5 247.167,231.5 249.5,231.5C 246.836,232.397 244.502,233.73 242.5,235.5C 240.847,235.66 239.514,236.326 238.5,237.5C 232.252,236.978 226.252,237.645 220.5,239.5C 221.29,238.206 222.29,237.039 223.5,236C 228.489,235.501 233.489,235.334 238.5,235.5C 238.5,234.5 238.5,233.5 238.5,232.5C 240.099,232.768 241.432,232.434 242.5,231.5 Z"/></g>
<g><path style="opacity:0.267" fill="#c4c3c3" d="M 75.5,232.5 C 75.8333,232.5 76.1667,232.5 76.5,232.5C 76.2316,246.935 76.8983,261.268 78.5,275.5C 76.7195,271.273 75.8862,266.606 76,261.5C 75.5002,251.839 75.3335,242.172 75.5,232.5 Z"/></g>
<g><path style="opacity:1" fill="#2e1e16" d="M 242.5,235.5 C 244.776,235.756 245.943,237.09 246,239.5C 246.167,240.5 246.333,241.5 246.5,242.5C 246.36,244.03 245.693,245.03 244.5,245.5C 243.5,245.5 242.5,245.5 241.5,245.5C 241.461,242.465 240.461,239.798 238.5,237.5C 239.514,236.326 240.847,235.66 242.5,235.5 Z"/></g>
<g><path style="opacity:0.929" fill="#979596" d="M 92.5,211.5 C 92.1451,225.235 92.8117,238.902 94.5,252.5C 93.8826,252.389 93.3826,252.056 93,251.5C 91.2779,238.036 91.1112,224.703 92.5,211.5 Z"/></g>
<g><path style="opacity:1" fill="#d5a786" d="M 327.5,226.5 C 332.255,233.004 336.255,240.004 339.5,247.5C 336.798,245.779 334.131,244.112 331.5,242.5C 331.089,236.854 329.755,231.521 327.5,226.5 Z"/></g>
<g><path style="opacity:1" fill="#597e7b" d="M 220.5,239.5 C 219.85,241.435 219.517,243.435 219.5,245.5C 219.733,247.062 220.4,248.395 221.5,249.5C 220.709,251.309 220.709,253.309 221.5,255.5C 220.698,256.885 220.031,256.718 219.5,255C 218.414,250.208 218.247,245.375 219,240.5C 219.383,239.944 219.883,239.611 220.5,239.5 Z"/></g>
<g><path style="opacity:1" fill="#b78e6f" d="M 238.5,237.5 C 240.461,239.798 241.461,242.465 241.5,245.5C 240.833,245.5 240.167,245.5 239.5,245.5C 237.174,248.16 234.174,249.493 230.5,249.5C 226.455,248.967 222.788,247.634 219.5,245.5C 219.517,243.435 219.85,241.435 220.5,239.5C 226.252,237.645 232.252,236.978 238.5,237.5 Z"/></g>
<g><path style="opacity:1" fill="#d08f63" d="M 239.5,245.5 C 236.715,246.306 233.881,246.972 231,247.5C 227.911,246.379 224.745,245.379 221.5,244.5C 221.5,243.167 221.5,241.833 221.5,240.5C 226.499,239.916 231.499,239.749 236.5,240C 239.035,240.928 240.035,242.762 239.5,245.5 Z"/></g>
<g><path style="opacity:1" fill="#482717" d="M 219.5,245.5 C 222.788,247.634 226.455,248.967 230.5,249.5C 234.174,249.493 237.174,248.16 239.5,245.5C 240.167,245.5 240.833,245.5 241.5,245.5C 242.5,245.5 243.5,245.5 244.5,245.5C 241.367,246.901 238.367,248.734 235.5,251C 230.647,251.882 225.981,251.382 221.5,249.5C 220.4,248.395 219.733,247.062 219.5,245.5 Z"/></g>
<g><path style="opacity:1" fill="#c98e67" d="M 257.5,229.5 C 260.358,230.166 263.358,230.833 266.5,231.5C 263.909,233.38 261.409,235.38 259,237.5C 258.517,238.448 258.351,239.448 258.5,240.5C 260.308,240.509 261.975,240.009 263.5,239C 266.99,236.089 270.656,233.422 274.5,231C 276.971,230.294 279.305,230.627 281.5,232C 277.701,234.797 274.201,237.964 271,241.5C 269.623,242.964 269.623,243.964 271,244.5C 276.089,241.033 280.922,237.199 285.5,233C 287.167,232.333 288.833,232.333 290.5,233C 299.895,238.564 308.228,245.397 315.5,253.5C 308.071,247.608 300.404,241.941 292.5,236.5C 288.192,233.922 284.358,234.588 281,238.5C 280.262,241.374 279.096,244.04 277.5,246.5C 279.284,246.476 281.284,246.976 283.5,248C 282.027,248.71 281.36,249.876 281.5,251.5C 286.255,251.511 290.589,252.011 294.5,253C 293.256,255.303 291.589,255.803 289.5,254.5C 287.345,256.006 285.012,257.006 282.5,257.5C 281.5,257.167 280.5,256.833 279.5,256.5C 281.369,255.376 283.369,254.543 285.5,254C 283.238,253.358 281.071,252.525 279,251.5C 276.913,252.834 275.413,254.667 274.5,257C 272.865,257.54 271.532,257.04 270.5,255.5C 269.167,256.833 269.167,258.167 270.5,259.5C 273.443,260.244 276.443,260.744 279.5,261C 280.056,261.383 280.389,261.883 280.5,262.5C 274.792,262.719 269.459,261.552 264.5,259C 256.214,256.832 248.214,257.332 240.5,260.5C 240.167,260.5 239.833,260.5 239.5,260.5C 236.813,260.664 234.146,260.497 231.5,260C 229.709,259.585 228.376,258.585 227.5,257C 226.207,256.51 224.873,256.343 223.5,256.5C 223.158,255.662 222.492,255.328 221.5,255.5C 220.709,253.309 220.709,251.309 221.5,249.5C 225.981,251.382 230.647,251.882 235.5,251C 238.367,248.734 241.367,246.901 244.5,245.5C 245.693,245.03 246.36,244.03 246.5,242.5C 246.333,241.5 246.167,240.5 246,239.5C 245.943,237.09 244.776,235.756 242.5,235.5C 244.502,233.73 246.836,232.397 249.5,231.5C 249.833,231.5 250.167,231.5 250.5,231.5C 252.558,230.067 254.892,229.4 257.5,229.5 Z"/></g>
<g><path style="opacity:1" fill="#cf9064" d="M 271.5,197.5 C 283.49,199.166 295.49,200.833 307.5,202.5C 311.115,205.777 314.782,209.11 318.5,212.5C 320.887,214.913 323.054,217.58 325,220.5C 326.122,222.407 326.955,224.407 327.5,226.5C 329.755,231.521 331.089,236.854 331.5,242.5C 334.131,244.112 336.798,245.779 339.5,247.5C 340.752,250.983 341.586,254.649 342,258.5C 344.572,261.197 346.405,264.197 347.5,267.5C 348.5,267.5 349.5,267.5 350.5,267.5C 351.348,276.714 355.015,284.714 361.5,291.5C 362.02,296.534 362.853,301.534 364,306.5C 366.718,308.328 369.552,310.661 372.5,313.5C 372.34,315.199 372.506,316.866 373,318.5C 378.055,321.558 379.222,325.558 376.5,330.5C 377,330.833 377.5,331.167 378,331.5C 381.51,328.904 385.01,328.904 388.5,331.5C 389.038,333.117 389.371,334.784 389.5,336.5C 390.5,336.5 391.5,336.5 392.5,336.5C 393.397,339.99 395.73,342.156 399.5,343C 401.667,345.167 403.833,347.333 406,349.5C 407.161,352.267 408.327,354.933 409.5,357.5C 392.3,379.242 374.633,400.575 356.5,421.5C 353.073,415.443 349.906,409.11 347,402.5C 345.259,401.242 343.426,400.242 341.5,399.5C 335.801,395.318 329.801,391.652 323.5,388.5C 322.56,386.428 321.06,384.761 319,383.5C 318.713,377.976 318.213,372.476 317.5,367C 317.961,363.392 318.795,359.892 320,356.5C 321.011,355.663 322.178,355.33 323.5,355.5C 324.034,350.683 325.701,350.516 328.5,355C 329.448,355.483 330.448,355.649 331.5,355.5C 339.652,362.977 348.652,369.31 358.5,374.5C 360.135,373.954 361.801,373.62 363.5,373.5C 363.719,372.325 363.386,371.325 362.5,370.5C 351.288,364.395 340.955,357.062 331.5,348.5C 324.119,341.067 318.786,332.4 315.5,322.5C 312.681,312.557 310.181,302.557 308,292.5C 307.623,288.981 307.123,285.481 306.5,282C 307.612,279.924 308.112,277.757 308,275.5C 307.261,273.779 306.427,272.113 305.5,270.5C 302.916,271.393 300.249,271.726 297.5,271.5C 291.523,269.065 285.857,266.065 280.5,262.5C 280.389,261.883 280.056,261.383 279.5,261C 276.443,260.744 273.443,260.244 270.5,259.5C 269.167,258.167 269.167,256.833 270.5,255.5C 271.532,257.04 272.865,257.54 274.5,257C 275.413,254.667 276.913,252.834 279,251.5C 281.071,252.525 283.238,253.358 285.5,254C 283.369,254.543 281.369,255.376 279.5,256.5C 280.5,256.833 281.5,257.167 282.5,257.5C 285.012,257.006 287.345,256.006 289.5,254.5C 291.589,255.803 293.256,255.303 294.5,253C 290.589,252.011 286.255,251.511 281.5,251.5C 281.36,249.876 282.027,248.71 283.5,248C 281.284,246.976 279.284,246.476 277.5,246.5C 279.096,244.04 280.262,241.374 281,238.5C 284.358,234.588 288.192,233.922 292.5,236.5C 300.404,241.941 308.071,247.608 315.5,253.5C 316.911,254.908 318.577,255.908 320.5,256.5C 322.266,256.566 323.266,255.732 323.5,254C 322.056,251.551 320.222,249.385 318,247.5C 316.257,243.016 314.257,238.683 312,234.5C 310.369,230.312 309.536,225.979 309.5,221.5C 307.712,221.785 306.045,221.452 304.5,220.5C 303.76,216.065 302.593,211.731 301,207.5C 299.989,206.663 298.822,206.33 297.5,206.5C 297.5,208.167 297.5,209.833 297.5,211.5C 297.877,218.51 299.877,225.01 303.5,231C 303.167,231.5 302.833,232 302.5,232.5C 296.793,227.654 290.127,225.487 282.5,226C 280.909,222.323 279.242,218.823 277.5,215.5C 275.735,212.877 275.068,209.877 275.5,206.5C 273.833,206.5 272.167,206.5 270.5,206.5C 270.335,209.85 270.502,213.183 271,216.5C 272.674,220.021 273.84,223.687 274.5,227.5C 269.105,227.267 263.772,227.6 258.5,228.5C 255.963,219.555 253.63,210.555 251.5,201.5C 251.643,199.738 251.309,198.071 250.5,196.5C 252,196.167 253.5,195.833 255,195.5C 260.361,197.053 265.861,197.72 271.5,197.5 Z"/></g>
<g><path style="opacity:0.043" fill="#c0bfc0" d="M 94.5,252.5 C 95.5,253.167 96.5,253.833 97.5,254.5C 97.5,254.833 97.5,255.167 97.5,255.5C 95.5,255.5 94.5,254.5 94.5,252.5 Z"/></g>
<g><path style="opacity:1" fill="#737172" d="M 97.5,153.5 C 98.3324,184.664 98.8324,215.997 99,247.5C 100.167,250 102,251.833 104.5,253C 108.486,253.499 112.486,253.666 116.5,253.5C 117.338,253.842 117.672,254.508 117.5,255.5C 115.898,257.074 113.898,257.741 111.5,257.5C 106.673,257.779 102.007,257.113 97.5,255.5C 97.5,255.167 97.5,254.833 97.5,254.5C 98.766,253.91 100.099,253.41 101.5,253C 99.5,251.667 97.5,250.333 95.5,249C 97.4883,217.39 98.1549,185.557 97.5,153.5 Z"/></g>
<g><path style="opacity:0.541" fill="#b0b0b0" d="M 116.5,253.5 C 117.189,252.226 118.023,252.226 119,253.5C 119.528,254.816 119.028,255.483 117.5,255.5C 117.672,254.508 117.338,253.842 116.5,253.5 Z"/></g>
<g><path style="opacity:0.212" fill="#cbc9c9" d="M 97.5,255.5 C 102.007,257.113 106.673,257.779 111.5,257.5C 108.36,258.641 105.027,258.808 101.5,258C 99.6803,257.8 98.347,256.966 97.5,255.5 Z"/></g>
<g><path style="opacity:1" fill="#d2a481" d="M 339.5,247.5 C 343.961,253.654 347.628,260.321 350.5,267.5C 349.5,267.5 348.5,267.5 347.5,267.5C 346.405,264.197 344.572,261.197 342,258.5C 341.586,254.649 340.752,250.983 339.5,247.5 Z"/></g>
<g><path style="opacity:0.173" fill="#92ccd8" d="M 132.5,243.5 C 134.167,247.5 135.833,251.5 137.5,255.5C 137.5,256.833 137.5,258.167 137.5,259.5C 134.925,254.559 133.258,249.225 132.5,243.5 Z"/></g>
<g><path style="opacity:1" fill="#9a9482" d="M 223.5,256.5 C 224.873,256.343 226.207,256.51 227.5,257C 228.376,258.585 229.709,259.585 231.5,260C 234.146,260.497 236.813,260.664 239.5,260.5C 239.5,260.833 239.5,261.167 239.5,261.5C 239.167,261.5 238.833,261.5 238.5,261.5C 232.425,262.628 227.425,260.961 223.5,256.5 Z"/></g>
<g><path style="opacity:1" fill="#1f1815" d="M 263.5,262.5 C 261.484,263.588 259.317,264.588 257,265.5C 251.221,263.898 245.388,262.565 239.5,261.5C 239.5,261.167 239.5,260.833 239.5,260.5C 239.833,260.5 240.167,260.5 240.5,260.5C 247.477,259.543 254.477,259.377 261.5,260C 262.381,260.708 263.047,261.542 263.5,262.5 Z"/></g>
<g><path style="opacity:1" fill="#102730" d="M 238.5,261.5 C 238.833,261.5 239.167,261.5 239.5,261.5C 245.388,262.565 251.221,263.898 257,265.5C 259.317,264.588 261.484,263.588 263.5,262.5C 265.415,262.216 267.081,262.549 268.5,263.5C 264.185,264.797 259.851,266.131 255.5,267.5C 249.846,264.932 243.846,263.432 237.5,263C 238.056,262.617 238.389,262.117 238.5,261.5 Z"/></g>
<g><path style="opacity:0.373" fill="#aba9aa" d="M 41.5,263.5 C 43.3283,267.146 45.6616,270.479 48.5,273.5C 44.2228,271.638 41.8894,268.305 41.5,263.5 Z"/></g>
<g><path style="opacity:0.643" fill="#acaaab" d="M 50.5,265.5 C 51.8333,266.167 52.8333,267.167 53.5,268.5C 51.5,268.5 50.5,267.5 50.5,265.5 Z"/></g>
<g><path style="opacity:1" fill="#c69f83" d="M 269.5,264.5 C 275.533,264.172 280.533,266.172 284.5,270.5C 283.646,271.632 283.646,272.965 284.5,274.5C 281.191,271.841 277.524,269.674 273.5,268C 272.251,267.26 271.251,267.427 270.5,268.5C 269.566,267.432 269.232,266.099 269.5,264.5 Z"/></g>
<g><path style="opacity:0.031" fill="#aeadae" d="M 53.5,268.5 C 55.2303,269.026 56.5637,270.026 57.5,271.5C 55.368,271.446 54.0347,270.446 53.5,268.5 Z"/></g>
<g><path style="opacity:0.494" fill="#a19ea4" d="M 129.5,273.5 C 131.693,272.203 134.027,272.203 136.5,273.5C 136.376,274.107 136.043,274.44 135.5,274.5C 133.735,273.539 131.735,273.205 129.5,273.5 Z"/></g>
<g><path style="opacity:1" fill="#331e13" d="M 280.5,262.5 C 285.857,266.065 291.523,269.065 297.5,271.5C 300.286,273.397 303.286,275.063 306.5,276.5C 304.257,277.474 301.924,277.808 299.5,277.5C 294.625,274.896 289.625,272.562 284.5,270.5C 280.533,266.172 275.533,264.172 269.5,264.5C 268.833,264.5 268.5,264.167 268.5,263.5C 267.081,262.549 265.415,262.216 263.5,262.5C 263.047,261.542 262.381,260.708 261.5,260C 254.477,259.377 247.477,259.543 240.5,260.5C 248.214,257.332 256.214,256.832 264.5,259C 269.459,261.552 274.792,262.719 280.5,262.5 Z"/></g>
<g><path style="opacity:0.557" fill="#a4a3a3" d="M 48.5,273.5 C 50.4044,273.738 51.7377,274.738 52.5,276.5C 50.5956,276.262 49.2623,275.262 48.5,273.5 Z"/></g>
<g><path style="opacity:0.424" fill="#a5a3a3" d="M 57.5,271.5 C 60.3283,272.655 62.9949,273.989 65.5,275.5C 62.0058,275.468 59.3392,274.135 57.5,271.5 Z"/></g>
<g><path style="opacity:0.706" fill="#a0a1a1" d="M 128.5,273.5 C 126.485,274.924 124.152,275.59 121.5,275.5C 123.515,274.076 125.848,273.41 128.5,273.5 Z"/></g>
<g><path style="opacity:1" fill="#d5ab87" d="M 350.5,267.5 C 355.214,274.933 358.88,282.933 361.5,291.5C 355.015,284.714 351.348,276.714 350.5,267.5 Z"/></g>
<g><path style="opacity:0.973" fill="#7c7b7b" d="M 56.5,278.5 C 59.6489,278.415 62.3155,279.415 64.5,281.5C 61.3511,281.585 58.6845,280.585 56.5,278.5 Z"/></g>
<g><path style="opacity:0.2" fill="#b4b0b3" d="M 117.5,279.5 C 112.503,281.749 107.17,283.083 101.5,283.5C 106.573,281.565 111.906,280.232 117.5,279.5 Z"/></g>
<g><path style="opacity:0.548" fill="#9c9a9b" d="M 71.5,277.5 C 73.6516,278.077 73.985,279.244 72.5,281C 86.067,282.278 99.4003,281.111 112.5,277.5C 107.882,279.869 102.882,281.369 97.5,282C 88.5,282.333 79.5,282.667 70.5,283C 71.7375,283.232 72.7375,283.732 73.5,284.5C 70.1517,284.289 67.1517,283.289 64.5,281.5C 66.5273,281.662 68.5273,281.495 70.5,281C 72.3731,280.047 72.7065,278.88 71.5,277.5 Z"/></g>
<g><path style="opacity:1" fill="#ba9779" d="M 284.5,274.5 C 286.645,275.989 288.978,276.989 291.5,277.5C 291.923,280.243 290.756,281.576 288,281.5C 283.587,280.105 279.087,279.105 274.5,278.5C 271.479,279.276 268.479,280.109 265.5,281C 265.918,284.35 267.252,287.184 269.5,289.5C 269.5,290.167 269.5,290.833 269.5,291.5C 265.992,289.575 264.659,286.575 265.5,282.5C 263.179,282.229 261.179,282.896 259.5,284.5C 255.571,283.567 251.571,283.234 247.5,283.5C 253.504,281.121 259.838,279.621 266.5,279C 268.578,277.923 270.578,276.757 272.5,275.5C 277.013,277.799 281.68,278.799 286.5,278.5C 285.37,277.378 284.703,276.044 284.5,274.5 Z"/></g>
<g><path style="opacity:0.999" fill="#494849" d="M 128.5,273.5 C 128.833,273.5 129.167,273.5 129.5,273.5C 131.735,273.205 133.735,273.539 135.5,274.5C 129.869,277.077 123.869,278.744 117.5,279.5C 111.906,280.232 106.573,281.565 101.5,283.5C 92.3748,285.745 83.0414,286.078 73.5,284.5C 72.7375,283.732 71.7375,283.232 70.5,283C 79.5,282.667 88.5,282.333 97.5,282C 102.882,281.369 107.882,279.869 112.5,277.5C 115.37,276.366 118.37,275.7 121.5,275.5C 124.152,275.59 126.485,274.924 128.5,273.5 Z"/></g>
<g><path style="opacity:1" fill="#60a3b0" d="M 140.5,269.5 C 142.459,274.488 144.626,278.821 147,282.5C 148.25,287.42 148.75,292.42 148.5,297.5C 145.259,288.43 142.592,279.097 140.5,269.5 Z"/></g>
<g><path style="opacity:1" fill="#b28f74" d="M 247.5,283.5 C 250.338,284.806 253.338,285.973 256.5,287C 251.325,287.088 246.325,287.921 241.5,289.5C 241.5,288.5 241.5,287.5 241.5,286.5C 238.833,286.5 236.167,286.5 233.5,286.5C 237.726,284.044 242.393,283.044 247.5,283.5 Z"/></g>
<g><path style="opacity:1" fill="#311e14" d="M 269.5,291.5 C 272.16,296.469 272.16,301.469 269.5,306.5C 270.949,307.172 272.282,307.839 273.5,308.5C 270.118,308.274 267.118,307.274 264.5,305.5C 266.612,291.461 260.612,286.294 246.5,290C 244.477,293.183 243.977,296.683 245,300.5C 249.523,306.008 255.356,308.008 262.5,306.5C 260.167,307.167 257.833,307.833 255.5,308.5C 245.813,307.995 236.146,307.162 226.5,306C 227.056,305.617 227.389,305.117 227.5,304.5C 232.544,304.827 237.544,304.494 242.5,303.5C 239.009,299.05 238.676,294.383 241.5,289.5C 246.325,287.921 251.325,287.088 256.5,287C 253.338,285.973 250.338,284.806 247.5,283.5C 251.571,283.234 255.571,283.567 259.5,284.5C 261.179,282.896 263.179,282.229 265.5,282.5C 264.659,286.575 265.992,289.575 269.5,291.5 Z"/></g>
<g><path style="opacity:1" fill="#9d9581" d="M 233.5,286.5 C 230.201,288.15 226.868,289.816 223.5,291.5C 223.5,291.167 223.5,290.833 223.5,290.5C 226.192,287.819 229.525,286.486 233.5,286.5 Z"/></g>
<g><path style="opacity:0.122" fill="#a6d5e0" d="M 223.5,290.5 C 223.5,290.833 223.5,291.167 223.5,291.5C 222.833,291.5 222.167,291.5 221.5,291.5C 217.881,292.244 214.215,292.577 210.5,292.5C 214.618,291.291 218.951,290.624 223.5,290.5 Z"/></g>
<g><path style="opacity:1" fill="#ca8e67" d="M 264.5,305.5 C 263.833,305.833 263.167,306.167 262.5,306.5C 255.356,308.008 249.523,306.008 245,300.5C 243.977,296.683 244.477,293.183 246.5,290C 260.612,286.294 266.612,291.461 264.5,305.5 Z"/></g>
<g><path style="opacity:1" fill="#61a3af" d="M 210.5,292.5 C 204.665,293.695 198.665,294.695 192.5,295.5C 192.389,294.883 192.056,294.383 191.5,294C 197.742,292.63 204.075,292.13 210.5,292.5 Z"/></g>
<g><path style="opacity:1" fill="#cd9066" d="M 233.5,286.5 C 236.167,286.5 238.833,286.5 241.5,286.5C 241.5,287.5 241.5,288.5 241.5,289.5C 238.676,294.383 239.009,299.05 242.5,303.5C 237.544,304.494 232.544,304.827 227.5,304.5C 225.833,304.5 224.167,304.5 222.5,304.5C 220.973,300.004 221.306,295.671 223.5,291.5C 226.868,289.816 230.201,288.15 233.5,286.5 Z"/></g>
<g><path style="opacity:1" fill="#bc8967" d="M 315.5,322.5 C 309.674,309.872 306.007,296.539 304.5,282.5C 303.5,282.5 302.5,282.5 301.5,282.5C 302.181,292.587 303.515,302.587 305.5,312.5C 304.21,311.942 303.377,310.942 303,309.5C 301.833,302.167 300.667,294.833 299.5,287.5C 299.442,284.953 300.109,282.62 301.5,280.5C 300.388,279.735 299.721,278.735 299.5,277.5C 301.924,277.808 304.257,277.474 306.5,276.5C 303.286,275.063 300.286,273.397 297.5,271.5C 300.249,271.726 302.916,271.393 305.5,270.5C 306.427,272.113 307.261,273.779 308,275.5C 308.112,277.757 307.612,279.924 306.5,282C 307.123,285.481 307.623,288.981 308,292.5C 310.181,302.557 312.681,312.557 315.5,322.5 Z"/></g>
<g><path style="opacity:0.184" fill="#9dd2dd" d="M 148.5,297.5 C 150.283,298.114 151.616,299.28 152.5,301C 154,301.167 155.5,301.333 157,301.5C 166.151,299.969 175.317,298.636 184.5,297.5C 174.82,299.803 164.987,301.803 155,303.5C 151.685,302.683 149.518,300.683 148.5,297.5 Z"/></g>
<g><path style="opacity:1" fill="#d7aa8b" d="M 361.5,291.5 C 365.163,298.826 368.83,306.159 372.5,313.5C 369.552,310.661 366.718,308.328 364,306.5C 362.853,301.534 362.02,296.534 361.5,291.5 Z"/></g>
<g><path style="opacity:1" fill="#c28d67" d="M 286.5,311.5 C 283.497,310.83 282.83,309.163 284.5,306.5C 285.496,306.586 286.329,306.252 287,305.5C 288.509,299.463 290.009,293.463 291.5,287.5C 289.856,287.286 288.356,287.62 287,288.5C 285.53,291.744 284.363,295.077 283.5,298.5C 281.982,301.534 281.149,304.867 281,308.5C 278.88,309.605 276.713,309.605 274.5,308.5C 274.167,308.5 273.833,308.5 273.5,308.5C 272.282,307.839 270.949,307.172 269.5,306.5C 272.16,301.469 272.16,296.469 269.5,291.5C 269.5,290.833 269.5,290.167 269.5,289.5C 270.855,292.768 272.688,293.102 275,290.5C 273.918,294.023 273.585,297.69 274,301.5C 274.71,302.973 275.876,303.64 277.5,303.5C 277.491,301.692 277.991,300.025 279,298.5C 279.667,299.167 280.333,299.833 281,300.5C 281.641,296.845 281.141,293.345 279.5,290C 279.833,289.167 280.167,288.333 280.5,287.5C 281.281,288.729 281.781,290.062 282,291.5C 284.462,287.074 288.296,285.074 293.5,285.5C 293.351,286.552 293.517,287.552 294,288.5C 294.654,287.304 295.154,287.304 295.5,288.5C 294.787,290.776 294.287,293.109 294,295.5C 293.667,294.167 293.333,292.833 293,291.5C 292.044,295.342 291.21,299.175 290.5,303C 292.325,304.466 292.825,306.299 292,308.5C 291.667,308.167 291.333,307.833 291,307.5C 289.175,308.103 287.341,308.77 285.5,309.5C 285.863,310.183 286.196,310.85 286.5,311.5 Z"/></g>
<g><path style="opacity:1" fill="#281a14" d="M 284.5,306.5 C 283.527,304.052 283.194,301.385 283.5,298.5C 284.363,295.077 285.53,291.744 287,288.5C 288.356,287.62 289.856,287.286 291.5,287.5C 290.009,293.463 288.509,299.463 287,305.5C 286.329,306.252 285.496,306.586 284.5,306.5 Z"/></g>
<g><path style="opacity:1" fill="#cf8f65" d="M 284.5,270.5 C 289.625,272.562 294.625,274.896 299.5,277.5C 299.721,278.735 300.388,279.735 301.5,280.5C 300.109,282.62 299.442,284.953 299.5,287.5C 300.667,294.833 301.833,302.167 303,309.5C 303.377,310.942 304.21,311.942 305.5,312.5C 308.745,321.772 312.745,330.772 317.5,339.5C 318.833,342.167 318.833,344.833 317.5,347.5C 314.161,354.037 311.828,360.871 310.5,368C 311.122,373.693 312.455,379.193 314.5,384.5C 308.148,382.665 302.815,379.331 298.5,374.5C 298.281,371.326 296.615,369.493 293.5,369C 290.473,364.128 286.639,359.961 282,356.5C 281.392,354.846 280.892,353.179 280.5,351.5C 280.5,349.833 280.5,348.167 280.5,346.5C 282.989,346.759 284.656,345.759 285.5,343.5C 284.503,336.171 283.503,328.838 282.5,321.5C 282.833,318.833 283.167,316.167 283.5,313.5C 284.739,313.058 285.739,312.391 286.5,311.5C 286.196,310.85 285.863,310.183 285.5,309.5C 287.341,308.77 289.175,308.103 291,307.5C 291.333,307.833 291.667,308.167 292,308.5C 292.825,306.299 292.325,304.466 290.5,303C 291.21,299.175 292.044,295.342 293,291.5C 293.333,292.833 293.667,294.167 294,295.5C 294.287,293.109 294.787,290.776 295.5,288.5C 295.154,287.304 294.654,287.304 294,288.5C 293.517,287.552 293.351,286.552 293.5,285.5C 288.296,285.074 284.462,287.074 282,291.5C 281.781,290.062 281.281,288.729 280.5,287.5C 280.167,288.333 279.833,289.167 279.5,290C 281.141,293.345 281.641,296.845 281,300.5C 280.333,299.833 279.667,299.167 279,298.5C 277.991,300.025 277.491,301.692 277.5,303.5C 275.876,303.64 274.71,302.973 274,301.5C 273.585,297.69 273.918,294.023 275,290.5C 272.688,293.102 270.855,292.768 269.5,289.5C 267.252,287.184 265.918,284.35 265.5,281C 268.479,280.109 271.479,279.276 274.5,278.5C 279.087,279.105 283.587,280.105 288,281.5C 290.756,281.576 291.923,280.243 291.5,277.5C 288.978,276.989 286.645,275.989 284.5,274.5C 283.646,272.965 283.646,271.632 284.5,270.5 Z"/></g>
<g><path style="opacity:1" fill="#c09474" d="M 221.5,291.5 C 222.167,291.5 222.833,291.5 223.5,291.5C 221.306,295.671 220.973,300.004 222.5,304.5C 224.167,304.5 225.833,304.5 227.5,304.5C 227.389,305.117 227.056,305.617 226.5,306C 236.146,307.162 245.813,307.995 255.5,308.5C 257.698,308.409 258.031,309.075 256.5,310.5C 252.474,310.677 249.641,312.677 248,316.5C 247.333,318.833 247.333,321.167 248,323.5C 249.332,325.66 250.832,327.66 252.5,329.5C 249.518,329.037 246.518,328.704 243.5,328.5C 235.291,328.001 228.624,324.668 223.5,318.5C 222.778,318.082 222.278,317.416 222,316.5C 221.793,310.706 220.96,305.04 219.5,299.5C 219.59,296.664 220.257,293.997 221.5,291.5 Z"/></g>
<g><path style="opacity:1" fill="#b1886b" d="M 257.5,311.5 C 259.216,311.629 260.883,311.962 262.5,312.5C 262.795,314.735 262.461,316.735 261.5,318.5C 261.5,316.833 261.5,315.167 261.5,313.5C 255.167,312.5 252.5,315.167 253.5,321.5C 251.623,320.341 251.123,318.674 252,316.5C 253.076,313.921 254.909,312.254 257.5,311.5 Z"/></g>
<g><path style="opacity:1" fill="#231814" d="M 264.5,305.5 C 267.118,307.274 270.118,308.274 273.5,308.5C 273.833,308.5 274.167,308.5 274.5,308.5C 274.5,309.5 274.5,310.5 274.5,311.5C 274.062,311.435 273.728,311.601 273.5,312C 274.582,313.33 275.249,314.83 275.5,316.5C 275.662,318.527 275.495,320.527 275,322.5C 274.29,323.973 273.124,324.64 271.5,324.5C 271.802,321.941 271.468,319.607 270.5,317.5C 269.86,314.318 268.86,313.985 267.5,316.5C 266.732,317.263 266.232,318.263 266,319.5C 265.502,322.817 265.335,326.15 265.5,329.5C 264.022,329.762 262.689,329.429 261.5,328.5C 263.331,323.097 263.664,317.763 262.5,312.5C 260.883,311.962 259.216,311.629 257.5,311.5C 257.5,310.833 257.167,310.5 256.5,310.5C 258.031,309.075 257.698,308.409 255.5,308.5C 257.833,307.833 260.167,307.167 262.5,306.5C 263.167,306.167 263.833,305.833 264.5,305.5 Z"/></g>
<g><path style="opacity:1" fill="#d19066" d="M 223.5,318.5 C 223.5,314.833 223.5,311.167 223.5,307.5C 231.493,308.256 239.493,309.09 247.5,310C 247.957,310.414 248.291,310.914 248.5,311.5C 244.95,316.245 244.617,321.245 247.5,326.5C 246.333,326.833 245.167,327.167 244,327.5C 239.66,326.436 235.494,324.936 231.5,323C 229.634,319.946 226.967,318.446 223.5,318.5 Z"/></g>
<g><path style="opacity:1" fill="#b48a6d" d="M 270.5,317.5 C 270.664,320.187 270.497,322.854 270,325.5C 269.632,326.91 268.799,327.91 267.5,328.5C 266.495,324.521 266.495,320.521 267.5,316.5C 268.86,313.985 269.86,314.318 270.5,317.5 Z"/></g>
<g><path style="opacity:1" fill="#321f16" d="M 283.5,298.5 C 283.194,301.385 283.527,304.052 284.5,306.5C 282.83,309.163 283.497,310.83 286.5,311.5C 285.739,312.391 284.739,313.058 283.5,313.5C 283.167,316.167 282.833,318.833 282.5,321.5C 283.503,328.838 284.503,336.171 285.5,343.5C 283.883,344.038 282.216,344.371 280.5,344.5C 279.864,337.44 278.864,330.44 277.5,323.5C 278.115,319.829 278.281,316.162 278,312.5C 276.989,311.663 275.822,311.33 274.5,311.5C 274.5,310.5 274.5,309.5 274.5,308.5C 276.713,309.605 278.88,309.605 281,308.5C 281.149,304.867 281.982,301.534 283.5,298.5 Z"/></g>
<g><path style="opacity:1" fill="#d4a280" d="M 372.5,313.5 C 377.433,319.772 382.767,325.772 388.5,331.5C 385.01,328.904 381.51,328.904 378,331.5C 377.5,331.167 377,330.833 376.5,330.5C 379.222,325.558 378.055,321.558 373,318.5C 372.506,316.866 372.34,315.199 372.5,313.5 Z"/></g>
<g><path style="opacity:0.439" fill="#ead4c1" d="M 243.5,328.5 C 246.518,328.704 249.518,329.037 252.5,329.5C 253.833,330.167 255.167,330.833 256.5,331.5C 256.5,331.833 256.5,332.167 256.5,332.5C 252.076,331.158 247.743,329.824 243.5,328.5 Z"/></g>
<g><path style="opacity:1" fill="#341e14" d="M 256.5,310.5 C 257.167,310.5 257.5,310.833 257.5,311.5C 254.909,312.254 253.076,313.921 252,316.5C 251.123,318.674 251.623,320.341 253.5,321.5C 254.002,325.59 256.335,327.59 260.5,327.5C 260.963,324.518 261.296,321.518 261.5,318.5C 262.461,316.735 262.795,314.735 262.5,312.5C 263.664,317.763 263.331,323.097 261.5,328.5C 262.689,329.429 264.022,329.762 265.5,329.5C 265.335,326.15 265.502,322.817 266,319.5C 266.232,318.263 266.732,317.263 267.5,316.5C 266.495,320.521 266.495,324.521 267.5,328.5C 268.799,327.91 269.632,326.91 270,325.5C 270.497,322.854 270.664,320.187 270.5,317.5C 271.468,319.607 271.802,321.941 271.5,324.5C 273.124,324.64 274.29,323.973 275,322.5C 275.495,320.527 275.662,318.527 275.5,316.5C 278.021,323.948 275.354,328.782 267.5,331C 263.848,331.499 260.182,331.665 256.5,331.5C 255.167,330.833 253.833,330.167 252.5,329.5C 250.832,327.66 249.332,325.66 248,323.5C 247.333,321.167 247.333,318.833 248,316.5C 249.641,312.677 252.474,310.677 256.5,310.5 Z"/></g>
<g><path style="opacity:1" fill="#ca9063" d="M 261.5,318.5 C 261.296,321.518 260.963,324.518 260.5,327.5C 256.335,327.59 254.002,325.59 253.5,321.5C 252.5,315.167 255.167,312.5 261.5,313.5C 261.5,315.167 261.5,316.833 261.5,318.5 Z"/></g>
<g><path style="opacity:1" fill="#d6af91" d="M 388.5,331.5 C 397.133,338.798 405.467,346.465 413.5,354.5C 412.564,355.974 411.23,356.974 409.5,357.5C 408.327,354.933 407.161,352.267 406,349.5C 403.833,347.333 401.667,345.167 399.5,343C 395.73,342.156 393.397,339.99 392.5,336.5C 391.5,336.5 390.5,336.5 389.5,336.5C 389.371,334.784 389.038,333.117 388.5,331.5 Z"/></g>
<g><path style="opacity:1" fill="#c39372" d="M 274.5,311.5 C 275.822,311.33 276.989,311.663 278,312.5C 278.281,316.162 278.115,319.829 277.5,323.5C 278.864,330.44 279.864,337.44 280.5,344.5C 282.216,344.371 283.883,344.038 285.5,343.5C 284.656,345.759 282.989,346.759 280.5,346.5C 280.5,348.167 280.5,349.833 280.5,351.5C 280.211,348.433 278.544,346.433 275.5,345.5C 269.303,340.907 262.97,336.573 256.5,332.5C 256.5,332.167 256.5,331.833 256.5,331.5C 260.182,331.665 263.848,331.499 267.5,331C 275.354,328.782 278.021,323.948 275.5,316.5C 275.249,314.83 274.582,313.33 273.5,312C 273.728,311.601 274.062,311.435 274.5,311.5 Z"/></g>
<g><path style="opacity:1" fill="#d19061" d="M 274.5,331.5 C 275.75,331.577 276.583,332.244 277,333.5C 278.071,337.204 278.238,340.871 277.5,344.5C 276.05,343.345 275.05,341.845 274.5,340C 272.649,339.163 270.816,338.329 269,337.5C 269.019,335.893 269.185,334.226 269.5,332.5C 271.415,332.784 273.081,332.451 274.5,331.5 Z"/></g>
<g><path style="opacity:1" fill="#b88a6c" d="M 317.5,339.5 C 321.725,345.33 326.392,350.663 331.5,355.5C 330.448,355.649 329.448,355.483 328.5,355C 325.701,350.516 324.034,350.683 323.5,355.5C 322.178,355.33 321.011,355.663 320,356.5C 318.795,359.892 317.961,363.392 317.5,367C 318.213,372.476 318.713,377.976 319,383.5C 321.06,384.761 322.56,386.428 323.5,388.5C 320.256,387.537 317.256,386.204 314.5,384.5C 315.5,384.5 316.5,384.5 317.5,384.5C 313.59,371.616 315.256,359.449 322.5,348C 320.866,347.506 319.199,347.34 317.5,347.5C 318.833,344.833 318.833,342.167 317.5,339.5 Z"/></g>
<g><path style="opacity:0.42" fill="#c1c0c1" d="M 413.5,354.5 C 416.356,353.102 419.022,353.602 421.5,356C 420.956,356.717 420.289,357.217 419.5,357.5C 418.393,355.031 416.393,354.031 413.5,354.5 Z"/></g>
<g><path style="opacity:1" fill="#ddb89e" d="M 275.5,345.5 C 278.544,346.433 280.211,348.433 280.5,351.5C 280.892,353.179 281.392,354.846 282,356.5C 286.639,359.961 290.473,364.128 293.5,369C 296.615,369.493 298.281,371.326 298.5,374.5C 287.505,367.502 279.839,357.835 275.5,345.5 Z"/></g>
<g><path style="opacity:1" fill="#2b1c13" d="M 315.5,322.5 C 318.786,332.4 324.119,341.067 331.5,348.5C 340.955,357.062 351.288,364.395 362.5,370.5C 363.386,371.325 363.719,372.325 363.5,373.5C 361.801,373.62 360.135,373.954 358.5,374.5C 348.652,369.31 339.652,362.977 331.5,355.5C 326.392,350.663 321.725,345.33 317.5,339.5C 312.745,330.772 308.745,321.772 305.5,312.5C 303.515,302.587 302.181,292.587 301.5,282.5C 302.5,282.5 303.5,282.5 304.5,282.5C 306.007,296.539 309.674,309.872 315.5,322.5 Z"/></g>
<g><path style="opacity:0.043" fill="#c6c3c3" d="M 413.5,363.5 C 413.262,365.404 412.262,366.738 410.5,367.5C 410.738,365.596 411.738,364.262 413.5,363.5 Z"/></g>
<g><path style="opacity:1" fill="#2e1e15" d="M 317.5,347.5 C 319.199,347.34 320.866,347.506 322.5,348C 315.256,359.449 313.59,371.616 317.5,384.5C 316.5,384.5 315.5,384.5 314.5,384.5C 312.455,379.193 311.122,373.693 310.5,368C 311.828,360.871 314.161,354.037 317.5,347.5 Z"/></g>
<g><path style="opacity:0.122" fill="#d0d0d0" d="M 406.5,372.5 C 406.573,374.027 405.906,375.027 404.5,375.5C 404.427,373.973 405.094,372.973 406.5,372.5 Z"/></g>
<g><path style="opacity:0.012" fill="#d2d1d1" d="M 403.5,376.5 C 403.573,378.027 402.906,379.027 401.5,379.5C 401.427,377.973 402.094,376.973 403.5,376.5 Z"/></g>
<g><path style="opacity:1" fill="#7c7c7c" d="M 425.5,377.5 C 430.793,375.816 435.793,376.649 440.5,380C 441.252,380.671 441.586,381.504 441.5,382.5C 440.115,381.386 438.615,380.386 437,379.5C 436.506,381.134 436.34,382.801 436.5,384.5C 435.078,383.075 433.411,382.075 431.5,381.5C 432.23,379.955 433.563,379.122 435.5,379C 432.312,377.684 428.978,377.184 425.5,377.5 Z"/></g>
<g><path style="opacity:0.404" fill="#a9a9a9" d="M 424.5,378.5 C 423.833,379.833 422.833,380.833 421.5,381.5C 421.5,379.5 422.5,378.5 424.5,378.5 Z"/></g>
<g><path style="opacity:0.063" fill="#c8c1be" d="M 400.5,380.5 C 399.581,383.089 397.914,385.089 395.5,386.5C 396.419,383.911 398.086,381.911 400.5,380.5 Z"/></g>
<g><path style="opacity:1" fill="#28211f" d="M 413.5,354.5 C 416.393,354.031 418.393,355.031 419.5,357.5C 417.833,359.833 415.833,361.833 413.5,363.5C 411.738,364.262 410.738,365.596 410.5,367.5C 409.396,369.389 408.063,371.055 406.5,372.5C 405.094,372.973 404.427,373.973 404.5,375.5C 404.5,376.167 404.167,376.5 403.5,376.5C 402.094,376.973 401.427,377.973 401.5,379.5C 401.5,380.167 401.167,380.5 400.5,380.5C 398.086,381.911 396.419,383.911 395.5,386.5C 395.167,387.5 394.5,388.167 393.5,388.5C 390.757,390.239 388.757,392.573 387.5,395.5C 387.167,396.5 386.5,397.167 385.5,397.5C 384.094,397.973 383.427,398.973 383.5,400.5C 382.833,401.833 381.833,402.833 380.5,403.5C 378.086,404.911 376.419,406.911 375.5,409.5C 374.5,411.167 373.167,412.5 371.5,413.5C 369.413,414.585 368.08,416.251 367.5,418.5C 366.488,419.872 365.488,421.205 364.5,422.5C 362.738,423.262 361.738,424.596 361.5,426.5C 361.573,428.027 360.906,429.027 359.5,429.5C 358.094,429.973 357.427,430.973 357.5,432.5C 357.167,433.5 356.5,434.167 355.5,434.5C 353.801,434.66 352.134,434.494 350.5,434C 349.748,433.329 349.414,432.496 349.5,431.5C 351.262,430.738 352.262,429.404 352.5,427.5C 354.822,426.198 356.155,424.198 356.5,421.5C 374.633,400.575 392.3,379.242 409.5,357.5C 411.23,356.974 412.564,355.974 413.5,354.5 Z"/></g>
<g><path style="opacity:0.841" fill="#908c8d" d="M 421.5,381.5 C 421.323,385.234 421.656,388.901 422.5,392.5C 418.896,389.143 418.563,385.477 421.5,381.5 Z"/></g>
<g><path style="opacity:1" fill="#2c2b2b" d="M 425.5,377.5 C 428.978,377.184 432.312,377.684 435.5,379C 433.563,379.122 432.23,379.955 431.5,381.5C 428.908,383.036 427.908,385.369 428.5,388.5C 426.727,389.314 426.227,390.648 427,392.5C 428.616,393.801 430.116,393.801 431.5,392.5C 433.027,392.573 434.027,391.906 434.5,390.5C 436.075,388.886 436.741,386.886 436.5,384.5C 436.34,382.801 436.506,381.134 437,379.5C 438.615,380.386 440.115,381.386 441.5,382.5C 443.461,384.32 443.794,386.32 442.5,388.5C 441.167,389.167 440.167,390.167 439.5,391.5C 439.158,392.338 438.492,392.672 437.5,392.5C 435.973,392.427 434.973,393.094 434.5,394.5C 431.5,395.833 428.5,395.833 425.5,394.5C 425.027,393.094 424.027,392.427 422.5,392.5C 421.656,388.901 421.323,385.234 421.5,381.5C 422.833,380.833 423.833,379.833 424.5,378.5C 424.5,377.833 424.833,377.5 425.5,377.5 Z M 431.5,381.5 C 433.411,382.075 435.078,383.075 436.5,384.5C 436.741,386.886 436.075,388.886 434.5,390.5C 432.973,390.427 431.973,391.094 431.5,392.5C 428.014,392.705 427.014,391.371 428.5,388.5C 429.736,386.351 430.736,384.018 431.5,381.5 Z"/></g>
<g><path style="opacity:0.271" fill="#bcbcbc" d="M 431.5,381.5 C 430.736,384.018 429.736,386.351 428.5,388.5C 427.908,385.369 428.908,383.036 431.5,381.5 Z"/></g>
<g><path style="opacity:0.51" fill="#a6a5a6" d="M 428.5,388.5 C 427.014,391.371 428.014,392.705 431.5,392.5C 430.116,393.801 428.616,393.801 427,392.5C 426.227,390.648 426.727,389.314 428.5,388.5 Z"/></g>
<g><path style="opacity:0.024" fill="#cfcfcf" d="M 442.5,388.5 C 442.5,390.5 441.5,391.5 439.5,391.5C 440.167,390.167 441.167,389.167 442.5,388.5 Z"/></g>
<g><path style="opacity:0.698" fill="#8e8e8e" d="M 434.5,390.5 C 434.027,391.906 433.027,392.573 431.5,392.5C 431.973,391.094 432.973,390.427 434.5,390.5 Z"/></g>
<g><path style="opacity:0.078" fill="#c6c6c5" d="M 393.5,388.5 C 392.243,391.427 390.243,393.761 387.5,395.5C 388.757,392.573 390.757,390.239 393.5,388.5 Z"/></g>
<g><path style="opacity:0.373" fill="#a8a3a3" d="M 422.5,392.5 C 424.027,392.427 425.027,393.094 425.5,394.5C 423.973,394.573 422.973,393.906 422.5,392.5 Z"/></g>
<g><path style="opacity:0.027" fill="#d1d1d1" d="M 437.5,392.5 C 437.027,393.906 436.027,394.573 434.5,394.5C 434.973,393.094 435.973,392.427 437.5,392.5 Z"/></g>
<g><path style="opacity:0.059" fill="#c7c7bc" d="M 385.5,397.5 C 385.573,399.027 384.906,400.027 383.5,400.5C 383.427,398.973 384.094,397.973 385.5,397.5 Z"/></g>
<g><path style="opacity:1" fill="#d8b199" d="M 341.5,399.5 C 343.426,400.242 345.259,401.242 347,402.5C 349.906,409.11 353.073,415.443 356.5,421.5C 356.155,424.198 354.822,426.198 352.5,427.5C 353.242,425.574 354.242,423.741 355.5,422C 350.948,414.388 346.281,406.888 341.5,399.5 Z"/></g>
<g><path style="opacity:0.125" fill="#cac3c7" d="M 380.5,403.5 C 379.581,406.089 377.914,408.089 375.5,409.5C 376.419,406.911 378.086,404.911 380.5,403.5 Z"/></g>
<g><path style="opacity:0.867" fill="#898989" d="M 448.5,411.5 C 447.012,409.155 445.012,408.821 442.5,410.5C 443.495,407.408 445.495,406.741 448.5,408.5C 449.776,409.614 449.776,410.614 448.5,411.5 Z"/></g>
<g><path style="opacity:0.518" fill="#959595" d="M 442.5,410.5 C 442.573,412.027 441.906,413.027 440.5,413.5C 440.427,411.973 441.094,410.973 442.5,410.5 Z"/></g>
<g><path style="opacity:0.157" fill="#cbcbcb" d="M 447.5,412.5 C 447.573,414.027 446.906,415.027 445.5,415.5C 445.427,413.973 446.094,412.973 447.5,412.5 Z"/></g>
<g><path style="opacity:0.596" fill="#8e8d8e" d="M 440.5,413.5 C 440.573,415.027 439.906,416.027 438.5,416.5C 438.427,414.973 439.094,413.973 440.5,413.5 Z"/></g>
<g><path style="opacity:0.047" fill="#cbcbcb" d="M 371.5,413.5 C 370.92,415.749 369.587,417.415 367.5,418.5C 368.08,416.251 369.413,414.585 371.5,413.5 Z"/></g>
<g><path style="opacity:0.024" fill="#d8d7d7" d="M 445.5,415.5 C 445.262,417.404 444.262,418.738 442.5,419.5C 442.738,417.596 443.738,416.262 445.5,415.5 Z"/></g>
<g><path style="opacity:0.659" fill="#8d8b8c" d="M 438.5,416.5 C 438.262,418.404 437.262,419.738 435.5,420.5C 435.738,418.596 436.738,417.262 438.5,416.5 Z"/></g>
<g><path style="opacity:0.212" fill="#bebcbc" d="M 397.5,420.5 C 399.38,420.229 400.713,420.896 401.5,422.5C 399.847,422.34 398.514,421.674 397.5,420.5 Z"/></g>
<g><path style="opacity:0.824" fill="#8b898a" d="M 435.5,420.5 C 435.262,422.404 434.262,423.738 432.5,424.5C 432.738,422.596 433.738,421.262 435.5,420.5 Z"/></g>
<g><path style="opacity:0.004" fill="#d0cece" d="M 441.5,420.5 C 441.262,422.404 440.262,423.738 438.5,424.5C 438.738,422.596 439.738,421.262 441.5,420.5 Z"/></g>
<g><path style="opacity:0.125" fill="#bebfc2" d="M 364.5,422.5 C 364.262,424.404 363.262,425.738 361.5,426.5C 361.738,424.596 362.738,423.262 364.5,422.5 Z"/></g>
<g><path style="opacity:0.02" fill="#dad9d9" d="M 437.5,425.5 C 437.262,427.404 436.262,428.738 434.5,429.5C 434.738,427.596 435.738,426.262 437.5,425.5 Z"/></g>
<g><path style="opacity:1" fill="#222122" d="M 448.5,411.5 C 448.5,412.167 448.167,412.5 447.5,412.5C 446.094,412.973 445.427,413.973 445.5,415.5C 443.738,416.262 442.738,417.596 442.5,419.5C 442.5,420.167 442.167,420.5 441.5,420.5C 439.738,421.262 438.738,422.596 438.5,424.5C 438.5,425.167 438.167,425.5 437.5,425.5C 435.738,426.262 434.738,427.596 434.5,429.5C 434.5,430.167 434.167,430.5 433.5,430.5C 432.094,430.973 431.427,431.973 431.5,433.5C 430.094,433.973 429.427,434.973 429.5,436.5C 427.167,438.167 425.167,440.167 423.5,442.5C 422.624,442.631 421.957,442.298 421.5,441.5C 422.127,440.583 422.461,439.583 422.5,438.5C 423.906,438.027 424.573,437.027 424.5,435.5C 424.328,434.508 424.662,433.842 425.5,433.5C 426.906,433.027 427.573,432.027 427.5,430.5C 429.914,429.089 431.581,427.089 432.5,424.5C 434.262,423.738 435.262,422.404 435.5,420.5C 437.262,419.738 438.262,418.404 438.5,416.5C 439.906,416.027 440.573,415.027 440.5,413.5C 441.906,413.027 442.573,412.027 442.5,410.5C 445.012,408.821 447.012,409.155 448.5,411.5 Z"/></g>
<g><path style="opacity:0.537" fill="#9d9d9d" d="M 432.5,424.5 C 431.581,427.089 429.914,429.089 427.5,430.5C 428.419,427.911 430.086,425.911 432.5,424.5 Z"/></g>
<g><path style="opacity:0.584" fill="#989697" d="M 352.5,427.5 C 352.262,429.404 351.262,430.738 349.5,431.5C 349.738,429.596 350.738,428.262 352.5,427.5 Z"/></g>
<g><path style="opacity:0.047" fill="#bebfc0" d="M 359.5,429.5 C 359.573,431.027 358.906,432.027 357.5,432.5C 357.427,430.973 358.094,429.973 359.5,429.5 Z"/></g>
<g><path style="opacity:0.255" fill="#aeacae" d="M 401.5,422.5 C 405.367,425.413 405.367,428.413 401.5,431.5C 402.833,428.5 402.833,425.5 401.5,422.5 Z"/></g>
<g><path style="opacity:0.69" fill="#a4a4a4" d="M 381.5,431.5 C 383.404,431.738 384.738,432.738 385.5,434.5C 383.596,434.262 382.262,433.262 381.5,431.5 Z"/></g>
<g><path style="opacity:1" fill="#323031" d="M 397.5,420.5 C 398.514,421.674 399.847,422.34 401.5,422.5C 402.833,425.5 402.833,428.5 401.5,431.5C 400.71,432.794 399.71,433.961 398.5,435C 393.98,435.814 389.646,435.647 385.5,434.5C 384.738,432.738 383.404,431.738 381.5,431.5C 380.14,427.494 380.807,423.66 383.5,420C 388.252,419.227 392.919,419.393 397.5,420.5 Z M 389.5,423.5 C 390.833,423.5 392.167,423.5 393.5,423.5C 396.391,427.996 395.057,430.663 389.5,431.5C 389.5,430.833 389.167,430.5 388.5,430.5C 388.674,428.139 389.007,425.806 389.5,423.5 Z"/></g>
<g><path style="opacity:0.588" fill="#a4a2a3" d="M 393.5,423.5 C 394.496,423.414 395.329,423.748 396,424.5C 397.018,428.674 395.518,431.674 391.5,433.5C 390.478,433.145 389.811,432.478 389.5,431.5C 395.057,430.663 396.391,427.996 393.5,423.5 Z"/></g>
<g><path style="opacity:0.302" fill="#a8a6a6" d="M 389.5,423.5 C 389.007,425.806 388.674,428.139 388.5,430.5C 387.853,429.726 387.52,428.726 387.5,427.5C 387.34,425.645 388.007,424.312 389.5,423.5 Z"/></g>
<g><path style="opacity:0.443" fill="#a8a7a8" d="M 427.5,430.5 C 427.573,432.027 426.906,433.027 425.5,433.5C 425.427,431.973 426.094,430.973 427.5,430.5 Z"/></g>
<g><path style="opacity:0.094" fill="#cbcaca" d="M 433.5,430.5 C 433.573,432.027 432.906,433.027 431.5,433.5C 431.427,431.973 432.094,430.973 433.5,430.5 Z"/></g>
<g><path style="opacity:0.412" fill="#a7a7a7" d="M 349.5,431.5 C 349.414,432.496 349.748,433.329 350.5,434C 352.134,434.494 353.801,434.66 355.5,434.5C 353.712,435.622 351.712,435.789 349.5,435C 348.209,433.708 348.209,432.542 349.5,431.5 Z"/></g>
<g><path style="opacity:0.086" fill="#d3d2d3" d="M 431.5,433.5 C 431.573,435.027 430.906,436.027 429.5,436.5C 429.427,434.973 430.094,433.973 431.5,433.5 Z"/></g>
<g><path style="opacity:0.584" fill="#898989" d="M 424.5,435.5 C 424.573,437.027 423.906,438.027 422.5,438.5C 422.427,436.973 423.094,435.973 424.5,435.5 Z"/></g>
<g><path style="opacity:0.137" fill="#bebebe" d="M 429.5,436.5 C 428.243,439.427 426.243,441.761 423.5,443.5C 423.5,443.167 423.5,442.833 423.5,442.5C 425.167,440.167 427.167,438.167 429.5,436.5 Z"/></g>
<g><path style="opacity:0.765" fill="#8d8c8d" d="M 422.5,438.5 C 422.461,439.583 422.127,440.583 421.5,441.5C 421.957,442.298 422.624,442.631 423.5,442.5C 423.5,442.833 423.5,443.167 423.5,443.5C 421.431,446.573 418.764,448.906 415.5,450.5C 417.294,448.203 419.294,446.037 421.5,444C 421,443.5 420.5,443 420,442.5C 418.629,444.041 417.129,445.375 415.5,446.5C 417.094,443.236 419.427,440.569 422.5,438.5 Z"/></g>
<g><path style="opacity:1" fill="#1b191a" d="M 415.5,450.5 C 414.761,450.631 414.094,450.464 413.5,450C 414.823,449.184 415.489,448.017 415.5,446.5C 417.129,445.375 418.629,444.041 420,442.5C 420.5,443 421,443.5 421.5,444C 419.294,446.037 417.294,448.203 415.5,450.5 Z"/></g>
<g><path style="opacity:0.859" fill="#797979" d="M 415.5,446.5 C 415.489,448.017 414.823,449.184 413.5,450C 414.094,450.464 414.761,450.631 415.5,450.5C 414.04,452.463 412.373,454.296 410.5,456C 409.517,456.591 408.85,456.257 408.5,455C 409.929,451.406 412.262,448.573 415.5,446.5 Z"/></g>
</svg>
